<svg id="Calque_1" data-name="Calque 1" xmlns="http://www.w3.org/2000/svg" width="900" height="700" viewBox="0 0 546.88 541.51"><defs><style>.cls-1{fill:#6c63ff;}.cls-2{opacity:0.2;isolation:isolate;}.cls-3{fill:#f0f0f0;}.cls-4{fill:#fff;}.cls-5{fill:#2f2e41;}.cls-6{fill:#e5e5e5;}.cls-7{fill:#fdb4b4;}</style></defs><path class="cls-1" d="M558.43,111.81c-53.15-67.72-145.21-70.46-195.9-72-37.13-1.11-137.54-4.1-218.94,69C82.7,163.45,65.45,231,58.66,259.21,35.43,355.63,47.47,503,131.8,557.49c131,84.56,410-72.11,455.36-262.73C591.1,278.2,613.89,182.48,558.43,111.81Z" transform="translate(-48.25 -39.48)"/><polygon class="cls-2" points="155 341.12 165.07 395.91 171.12 396.44 155 341.12"/><path class="cls-3" d="M305.77,327.49c13.18-23.17,38.3-41,64.9-39.24a122.77,122.77,0,0,0-32.3,77.87c-.44,11.17.24,23.64-7.17,32-4.62,5.2-11.67,7.72-18.61,8.25s-13.86-.72-20.71-2l-1.66.51C289.59,378.27,292.6,350.66,305.77,327.49Z" transform="translate(-48.25 -39.48)"/><path class="cls-4" d="M370.7,288.8A105,105,0,0,0,324,333.37,45.13,45.13,0,0,0,319,346.64a25.94,25.94,0,0,0,1.34,13.57c1.47,4.06,3.43,8.05,3.88,12.4A15.89,15.89,0,0,1,320,384.87c-3.71,4.16-8.7,6.74-13.66,9.09-5.51,2.61-11.28,5.24-15.18,10.11-.48.59-1.36-.18-.89-.77,6.79-8.47,18.41-10.07,26.48-16.9,3.76-3.18,6.58-7.52,6.4-12.61-.15-4.44-2.18-8.56-3.69-12.66a27.64,27.64,0,0,1-1.81-13.22,41.67,41.67,0,0,1,4.42-13.41,101.76,101.76,0,0,1,18.72-25.74,107,107,0,0,1,29.53-21.07c.68-.33,1.06.79.38,1.11Z" transform="translate(-48.25 -39.48)"/><path class="cls-4" d="M327,326.92a15.74,15.74,0,0,1-4.75-19.83.59.59,0,0,1,1.06.51A14.57,14.57,0,0,0,327.76,326C328.37,326.48,327.6,327.36,327,326.92Z" transform="translate(-48.25 -39.48)"/><path class="cls-4" d="M319.36,358.25a30.32,30.32,0,0,0,19.22-10.95c.47-.59,1.36.18.89.76a31.59,31.59,0,0,1-20,11.36c-.75.11-.83-1.06-.09-1.17Z" transform="translate(-48.25 -39.48)"/><path class="cls-4" d="M349.94,301.55a8.89,8.89,0,0,0,8,2.84c.75-.11.83,1.06.08,1.17a10,10,0,0,1-8.82-3.12.62.62,0,0,1-.06-.83.6.6,0,0,1,.83-.06Z" transform="translate(-48.25 -39.48)"/><path class="cls-3" d="M423.58,361.34l-1.4.26a116.86,116.86,0,0,0-18.35,5.08l-1.39.5a123.74,123.74,0,0,0-38.92,23.69,120.16,120.16,0,0,0-12.61,13.21c-5.33,6.51-10.59,14-17.56,18.25a21,21,0,0,1-2.24,1.21L291,406.89l-.22-.24-1.63-.59.56-.78c.1-.15.22-.29.32-.44s.15-.2.21-.29l.07-.09.18-.26q1.62-2.2,3.29-4.4h0c8.47-11.12,17.93-21.63,28.69-30.37l1-.79A114.51,114.51,0,0,1,339,358.15a100.56,100.56,0,0,1,9.19-4.55,84.56,84.56,0,0,1,25.54-6.51c17.55-1.63,35.42,2.37,48.88,13.39C422.91,360.77,423.24,361,423.58,361.34Z" transform="translate(-48.25 -39.48)"/><path class="cls-4" d="M423.28,361.81a105,105,0,0,0-64.14,7.44,45,45,0,0,0-11.94,7.62,25.92,25.92,0,0,0-7.1,11.65c-1.28,4.12-2.11,8.49-4.37,12.23A15.88,15.88,0,0,1,325,408c-5.47,1.08-11,.14-16.39-1-6-1.24-12.15-2.61-18.2-1.07-.74.19-1-1-.25-1.15,10.53-2.68,20.77,3.05,31.32,2.45,4.92-.28,9.79-2.05,12.7-6.21,2.56-3.65,3.42-8.15,4.68-12.33a27.67,27.67,0,0,1,6.51-11.66,42.14,42.14,0,0,1,11.6-8,101.93,101.93,0,0,1,30.45-9.28,107,107,0,0,1,36.27,1c.74.15.37,1.26-.37,1.12Z" transform="translate(-48.25 -39.48)"/><path class="cls-4" d="M365.43,365.92a15.73,15.73,0,0,1,8.14-18.69c.68-.33,1.22.71.54,1a14.61,14.61,0,0,0-7.54,17.41c.23.72-.92,1-1.14.24Z" transform="translate(-48.25 -39.48)"/><path class="cls-4" d="M340.48,386.35a30.37,30.37,0,0,0,21.93,2.82c.74-.18,1,1,.25,1.15a31.59,31.59,0,0,1-22.82-3C339.18,387,339.82,386,340.48,386.35Z" transform="translate(-48.25 -39.48)"/><path class="cls-4" d="M399,359.49a8.9,8.9,0,0,0,4.65,7.06c.67.36,0,1.34-.64,1a10,10,0,0,1-5.16-7.81.6.6,0,0,1,.45-.69.59.59,0,0,1,.7.45Z" transform="translate(-48.25 -39.48)"/><path class="cls-5" d="M347.13,388.8c-5.62-27.18-12.65-36.24-12.65-36.24l-2.68-2.08L328.57,348v-.32l-.76-.26-.18-.14-.3-.23,0,.06-.1.1-14.61-5-18.53-6.29-8.58-11.15A14.86,14.86,0,0,0,273.6,319l-27.4.21a14.82,14.82,0,0,0-10,4l-18,16.71-28.06,13.4,0-.05-.3.21-4.33,2.08.18.93L183,358.36s-7,8.43-12.64,33.72c-1.43,6.43-2.14,20.23-2.39,37.24a6.48,6.48,0,0,0,6.39,6.59H343a6.49,6.49,0,0,0,6.49-6.5v-.08C349.27,410.82,348.57,395.78,347.13,388.8Z" transform="translate(-48.25 -39.48)"/><path class="cls-6" d="M366.36,204.2a22,22,0,1,0,0,44H530.25a22,22,0,0,0,0-44Z" transform="translate(-48.25 -39.48)"/><path class="cls-4" d="M366.36,208.65a17.54,17.54,0,0,0,0,35.08H530.25a17.54,17.54,0,0,0,0-35.08Z" transform="translate(-48.25 -39.48)"/><circle id="e096411a-cdc3-4e6d-bbd4-4630e1fee17e" class="cls-7" cx="215.96" cy="233.3" r="35.9"/><path class="cls-5" d="M255,306.92l-.46-1,.18,0Z" transform="translate(-48.25 -39.48)"/><path class="cls-5" d="M227.3,238.51c1.82-1.45,3.94-2.79,6.26-2.71s4.68,2.17,4.2,4.44a36.91,36.91,0,0,1,44.4-16.65c5.77,2,11.43,6.11,12.75,12.09.34,1.53.42,3.21,1.38,4.46,1.2,1.57,3.51,1.92,5.41,1.37l.06,0a1.69,1.69,0,0,1,2.15,1.06,1.65,1.65,0,0,1-.1,1.34l-1.63,3a13,13,0,0,0,6.23-.13,1.7,1.7,0,0,1,1.8,2.64,29.57,29.57,0,0,1-23.56,12.11c-6.52,0-13.11-2.29-19.46-.79a16.9,16.9,0,0,0-12.56,20.34,16.24,16.24,0,0,0,1.19,3.39c-1.95-2.13-5.72-1.63-7.71.46s-2.52,5.22-2.31,8.1c.3,4.41,2,8.57,3.85,12.61-15.27-.48-29.72-11.19-34.58-25.68S215.31,248.08,227.3,238.51Z" transform="translate(-48.25 -39.48)"/><polygon class="cls-2" points="265.93 336.99 255.86 395.87 249.81 396.44 265.93 336.99"/><path class="cls-5" d="M235.89,220.07a3.59,3.59,0,0,1-4.79-2.1,3.64,3.64,0,0,1,1.91-5,3.82,3.82,0,0,1,2.88,7.06ZM232.19,209l-1.53.64a1.64,1.64,0,0,1-2.1-.77l-.08-.15c-1.65-3-1.84-6.6-.56-10.75,1.19-3.73,1.68-6.35.69-8.73-1.15-2.74-3.6-3.6-6.72-2.36a5.71,5.71,0,0,0-2.55,1.45,2.15,2.15,0,0,1-3.11-3,16.68,16.68,0,0,1,5.67-3.9c6.71-2.8,10.09,1.34,11.64,5s.66,7-.71,11.33c-1.14,3.61-1.08,6.29.22,9a1.66,1.66,0,0,1-.79,2.2l-.07,0Z" transform="translate(-48.25 -39.48)"/><path class="cls-1" d="M526.66,237.47H494.05a.8.8,0,0,1-.78-.79.78.78,0,0,1,.78-.78h32.61a.79.79,0,0,1,0,1.57Z" transform="translate(-48.25 -39.48)"/><path class="cls-1" d="M402.56,236.68H370a.8.8,0,0,1-.8-.78.79.79,0,0,1,.78-.79h32.62a.79.79,0,0,1,0,1.57Z" transform="translate(-48.25 -39.48)"/><path class="cls-1" d="M443.93,236.94H411.32a.78.78,0,0,1-.79-.78.79.79,0,0,1,.78-.79h32.62a.79.79,0,0,1,0,1.57Z" transform="translate(-48.25 -39.48)"/><path class="cls-1" d="M485.29,237.2h-32.6a.77.77,0,0,1-.78-.79.79.79,0,0,1,.78-.78h32.6a.78.78,0,0,1,.79.78.77.77,0,0,1-.78.79Z" transform="translate(-48.25 -39.48)"/><circle class="cls-1" cx="337.94" cy="183.92" r="6.06"/><circle class="cls-1" cx="379.55" cy="183.92" r="6.06"/><circle class="cls-1" cx="421.17" cy="183.92" r="6.06"/><circle class="cls-1" cx="462.78" cy="183.92" r="6.06"/></svg>