<svg id="Calque_1" data-name="Calque 1" xmlns="http://www.w3.org/2000/svg" width="900" height="700" viewBox="0 0 641.47 763.86"><defs><style>.cls-1{fill:#6c63ff;}.cls-2{fill:#2e2e41;}.cls-3{fill:#fdb4b4;}.cls-4{fill:#e8e9ea;}.cls-5{fill:#d6d7d8;}.cls-6{fill:#3f3c57;}.cls-7{fill:#fff;}</style></defs><path class="cls-1" d="M606.47,94.66c-62.34-79.76-170.32-83-229.79-84.77-43.54-1.3-161.33-4.82-256.81,81.23-71.41,64.37-91.65,144-99.61,177.16C-7,381.84,7.13,555.47,106,619.6c153.63,99.59,480.9-84.94,534.13-309.45C644.8,290.64,671.52,177.9,606.47,94.66Z" transform="translate(-8.04 -9.47)"/><polygon class="cls-2" points="365.86 467.92 386.6 456.55 386.6 489.02 362.61 489.02 365.86 467.92"/><polygon class="cls-3" points="391.05 475.16 392.97 491.1 379.17 518.58 370.6 493 374.63 474.63 391.05 475.16"/><rect class="cls-1" x="369.85" y="492.05" width="23.83" height="28.79"/><polygon class="cls-2" points="413.34 644.51 419.56 737.31 404.26 737.83 384.05 645.29 413.34 644.51"/><polygon class="cls-2" points="376.27 643.99 382.49 736.79 367.19 737.31 346.98 644.77 376.27 643.99"/><path class="cls-4" d="M437.54,673.66h-.37l-97.43-.32.09-.34,25.05-99.25-6.27-50.08a21.36,21.36,0,0,1,12.64-22.33l3.16-1.39,6-4.36,7.68,27.13,12.29-27.15L405.8,501,418,504.22a15.65,15.65,0,0,1,11.48,17.23l0,.06-18.65,53.22Z" transform="translate(-8.04 -9.47)"/><path class="cls-2" d="M376.22,745.72l16.32.82,1.49,8.68s11.6,15.1-2.34,14.4-37.76,2.41-37.49-3,17.59-7.72,17.59-7.72l4.43-13.22Z" transform="translate(-8.04 -9.47)"/><path class="cls-2" d="M412.39,744.77l16.32.82,1.48,8.68s11.61,15.1-2.34,14.4-37.76,2.4-37.49-3S408,758,408,758l4.43-13.22Z" transform="translate(-8.04 -9.47)"/><path id="uuid-3bc2e7c3-8a4e-432b-b93d-ff096d796d3b-56" class="cls-3" d="M427.33,620.55h0c-.38,6.53-4.05,11.62-8.21,11.38s-7.21-5.73-6.83-12.26a16.44,16.44,0,0,1,2.16-7.42l2-27.63,12.94,1.19-3.3,27.12a16.31,16.31,0,0,1,1.28,7.62Z" transform="translate(-8.04 -9.47)"/><path id="uuid-a34cbb18-fa14-4c0b-8260-87fab6b8d9f9-57" class="cls-3" d="M360.8,618.07h0c-.52,6.51-4.3,11.53-8.45,11.2s-7.09-5.88-6.57-12.4a16.29,16.29,0,0,1,2.32-7.37l2.54-27.59,12.92,1.47-3.88,27a16.39,16.39,0,0,1,1.12,7.65Z" transform="translate(-8.04 -9.47)"/><path class="cls-4" d="M429.42,609.69l-18.81-1.2,0-.29,3.76-47-6-44.22a10,10,0,0,1,9.12-11.33h0a10,10,0,0,1,10.73,8.64l8,59v0Z" transform="translate(-8.04 -9.47)"/><path class="cls-4" d="M363.93,607.89l-18.83-1.14,0-.3,13-94.19a10,10,0,0,1,18.21-2.74,9.93,9.93,0,0,1,1.16,7.83Z" transform="translate(-8.04 -9.47)"/><circle class="cls-5" cx="379.64" cy="519.89" r="1.67"/><circle class="cls-5" cx="379.64" cy="532.5" r="1.67"/><circle class="cls-5" cx="379.64" cy="545.11" r="1.67"/><circle class="cls-5" cx="379.64" cy="557.72" r="1.67"/><circle class="cls-5" cx="379.64" cy="570.33" r="1.67"/><circle class="cls-5" cx="379.64" cy="582.94" r="1.67"/><circle class="cls-5" cx="379.64" cy="595.55" r="1.67"/><circle class="cls-5" cx="379.64" cy="608.16" r="1.67"/><circle class="cls-3" cx="382.17" cy="467.72" r="15.58"/><path class="cls-2" d="M398.38,459c.75,1.52-.44,3.41-2,4.05a9.35,9.35,0,0,1-5,.11,9.34,9.34,0,0,0-5,.14c-2,.84-3.16,2.94-4.14,4.9l-5.5,11a13.3,13.3,0,0,0-1.83,5.64c0,3.67,2.88,6.6,4.44,9.91a14.16,14.16,0,0,1-11.09,20.1,6,6,0,0,1-3.45-.4,2.84,2.84,0,0,1-1.65-2.84c.38-2.27,3.84-2.8,4.47-5a3.66,3.66,0,0,0-1.05-3.29c-.79-.9-1.79-1.6-2.55-2.53a6.61,6.61,0,0,1-.27-7.72c.94-1.33,2.38-2.32,3-3.83a8,8,0,0,0,.14-4.1q-.37-2.64-.76-5.28a15,15,0,0,1,0-6.18c1.32-4.57,6.48-6.72,9.51-10.39,1.41-1.7,2.35-3.75,3.79-5.43a11.76,11.76,0,0,1,19,1.66" transform="translate(-8.04 -9.47)"/><path class="cls-2" d="M395.92,459.29a1.67,1.67,0,0,0-.82,2,5.68,5.68,0,0,0,1.31,2,24.36,24.36,0,0,1,3.38,25.71c-1.05,2.19-2.45,4.26-3,6.62-.41,1.72-.39,3.61-1.35,5.1s-2.89,2.53-3.08,4.32a3.33,3.33,0,0,0,1.51,2.94,8.71,8.71,0,0,0,3.22,1.24,44.74,44.74,0,0,0,8.93,1.06,6.88,6.88,0,0,0,2.89-.39,2.62,2.62,0,0,0,1.68-2.22c0-.77-.44-1.48-.5-2.25-.17-2.3,2.93-3.52,3.53-5.75.4-1.46-.38-3-1.21-4.24s-1.79-2.6-1.77-4.11.94-2.73,1.29-4.14c.49-2-.11-4-.71-5.9-.51-1.63-1-3.26-1.52-4.89l-1.62-5.2c-.94-3-1.93-6.14-4-8.57s-5.41-4-8.42-3" transform="translate(-8.04 -9.47)"/><path class="cls-6" d="M406.54,519.65l-1.07-.31c2.22-7.63-2.57-21.86-2.62-22l1-.36C404.1,497.57,408.86,511.69,406.54,519.65Z" transform="translate(-8.04 -9.47)"/><circle class="cls-6" cx="397.96" cy="514.3" r="4.65"/><path class="cls-6" d="M375.48,540.21h-2.82a.56.56,0,1,1,0-1.11h2.82a2.9,2.9,0,0,0,2.9-2.91l0-17.35a6.84,6.84,0,1,0-13.67,0l0,16.24a2.9,2.9,0,0,0,2.88,2.9h1.93a.56.56,0,0,1,.55.56.55.55,0,0,1-.55.55h-1.94a4,4,0,0,1-4-4l0-16.24a7.95,7.95,0,0,1,15.9,0l0,17.35a4,4,0,0,1-4,4Z" transform="translate(-8.04 -9.47)"/><circle class="cls-6" cx="361.47" cy="529.08" r="1.97"/><circle class="cls-6" cx="364.61" cy="530.19" r="1.97"/><polygon class="cls-3" points="232.15 467.91 236.32 486.94 227.45 513.42 213.16 484.96 215.14 468.45 232.15 467.91"/><rect class="cls-1" x="212.42" y="485.95" width="24.67" height="29.81"/><circle class="cls-3" cx="226.95" cy="460.64" r="16.85"/><path class="cls-2" d="M220.33,482.64s-12.56-23.2-1.24-34.36,20.42-3.81,20.42-3.81l5.19-.21s1.08,4.09,2.82,1.88,4.91,5.84,4.91,5.84c5.85,10.54-14.45,12.91-14.45,12.91s1.47,4.66,0,5.64-5.47,4.66-5.47,4.66l-3.56,2.69-2.12-3.23s-2.21-1.74-3.33-1,.42,10.38.42,10.38l-3.57-1.38Z" transform="translate(-8.04 -9.47)"/><polygon class="cls-2" points="192.07 643.83 185.62 739.92 201.46 740.46 222.4 644.63 192.07 643.83"/><polygon class="cls-2" points="230.45 643.29 224.01 739.39 239.85 739.92 260.79 644.09 230.45 643.29"/><path class="cls-4" d="M196.23,675.25l8.43-104.67-12.93-54.5a16.19,16.19,0,0,1,11.87-17.85l12.65-3.36,5.6-5.6,12.74,28.13,7.95-28.11,6.21,4.51,18.4,8.12v.19L264.19,568l6.59,106.37h-.3l-74.25.93Z" transform="translate(-8.04 -9.47)"/><path class="cls-2" d="M246.87,748.3,251.46,762s17.94,2.44,18.22,8-24.38,2.34-38.82,3.07-2.42-14.92-2.42-14.92l1.54-9,16.89-.85Z" transform="translate(-8.04 -9.47)"/><path class="cls-2" d="M209.43,747.31,214,761s17.94,2.44,18.22,8-24.38,2.34-38.82,3.06S191,757.15,191,757.15l1.54-9,16.9-.85Z" transform="translate(-8.04 -9.47)"/><path id="uuid-2a99fb06-c611-4846-a9cf-67468c4aeefc-54" class="cls-3" d="M187.05,619.66a17,17,0,0,1,1.33-7.89L185,583.69l13.4-1.23,2,28.61a16.91,16.91,0,0,1,2.23,7.68c.4,6.76-2.77,12.44-7.07,12.69s-8.11-5-8.5-11.78Z" transform="translate(-8.04 -9.47)"/><path id="uuid-a83e19fb-8297-4073-aac4-48fd1880d45d-55" class="cls-3" d="M272,623.78a16.88,16.88,0,0,1,1.41-7.87l-3.12-28.12,13.42-1.09,1.72,28.64a16.93,16.93,0,0,1,2.15,7.7c.32,6.77-2.91,12.41-7.21,12.62s-8-5.11-8.37-11.88Z" transform="translate(-8.04 -9.47)"/><path class="cls-4" d="M184.9,608.4l0-.24-7-37.49,8.25-61a10.36,10.36,0,0,1,11.1-8.93,10.33,10.33,0,0,1,9.43,11.71l-6.21,45.79,3.91,49Z" transform="translate(-8.04 -9.47)"/><path class="cls-4" d="M267.83,607.52l-14-93.77A10.36,10.36,0,0,1,261.7,501a10.36,10.36,0,0,1,12.11,7.5l13.5,97.87-19.48,1.17Z" transform="translate(-8.04 -9.47)"/><circle class="cls-5" cx="226.96" cy="514.78" r="1.72"/><circle class="cls-5" cx="226.96" cy="527.83" r="1.72"/><circle class="cls-5" cx="226.96" cy="540.89" r="1.72"/><circle class="cls-5" cx="226.96" cy="553.95" r="1.72"/><circle class="cls-5" cx="226.96" cy="567.01" r="1.72"/><circle class="cls-5" cx="226.96" cy="580.07" r="1.72"/><circle class="cls-5" cx="226.96" cy="593.13" r="1.72"/><circle class="cls-5" cx="226.96" cy="606.18" r="1.72"/><polygon class="cls-1" points="226.96 618.01 194.33 613.66 193.7 613.58 177.02 575.12 167.09 552.23 192.96 552.23 226.96 618.01"/><path class="cls-6" d="M250.81,515.49l-1.06-.31c2.22-7.63-2.52-22.08-2.57-22.23l1.33,1C248.72,494.56,253.14,507.53,250.81,515.49Z" transform="translate(-8.04 -9.47)"/><path class="cls-6" d="M213.28,516.84l1.07-.31c-2.23-7.63,2.57-21.86,2.62-22l-1.14.76C215.62,495.89,211,508.88,213.28,516.84Z" transform="translate(-8.04 -9.47)"/><circle class="cls-6" cx="242.24" cy="510.14" r="4.65"/><path class="cls-6" d="M218.23,545.41h-2.81a.56.56,0,1,1,0-1.11h2.81a2.9,2.9,0,0,0,2.91-2.91l0-17.35a6.84,6.84,0,1,0-13.67,0l0,16.24a2.9,2.9,0,0,0,2.88,2.9h1.93a.56.56,0,0,1,.55.56.55.55,0,0,1-.55.55h-1.94a4,4,0,0,1-4-4l0-16.24a7.95,7.95,0,1,1,15.89,0l0,17.35a4,4,0,0,1-4,4Z" transform="translate(-8.04 -9.47)"/><circle class="cls-6" cx="204.23" cy="534.28" r="1.97"/><circle class="cls-6" cx="207.37" cy="535.39" r="1.97"/><path class="cls-7" d="M518.9,173.3a10.53,10.53,0,0,0,12.94,16.48l7,7.14c10.34,10.61,12.33,25.51,4.42,33.22s-22.76,5.35-33.1-5.26l-7.87-8.07a7.53,7.53,0,0,0-1.51-8.13l-5.14-5.27c4.56-12.7-20.18-46.39-25.45-53.34a22.2,22.2,0,0,0-27.95-3,4.24,4.24,0,0,0-4.85,6.8l1.34,1.37a4.24,4.24,0,0,0,7.21-3.72,16.35,16.35,0,0,1,19.9,2.29c15,20,28.28,44.1,24,48.27l-1.91,1.86,2.76,2.82a1.77,1.77,0,0,1,.53.36l5.44,5.59a1.72,1.72,0,1,1-2.46,2.4l-5.44-5.58a1.57,1.57,0,0,1-.35-.56l-2.75-2.81-3.07,3c-3.13,3.05-25.34-8.78-47.34-25.14a16.48,16.48,0,0,1-2.52-19.25,4.2,4.2,0,0,0,3.52-1.17,4.25,4.25,0,0,0,.08-6L435,156.19a4.24,4.24,0,0,0-6.8,4.92,22.2,22.2,0,0,0,3.11,27l.25.21c13.1,9.77,43.6,31.09,53.74,25.82l4.8,4.92a7.4,7.4,0,0,0,8.1,1.72l7.86,8.07c12.55,12.88,31,15.29,41.22,5.37s8.24-28.46-4.31-41.34l-7.2-7.38A10.55,10.55,0,0,0,518.9,173.3Zm3.91,10.93a4.82,4.82,0,1,1,6.81.08A4.84,4.84,0,0,1,522.81,184.23Z" transform="translate(-8.04 -9.47)"/><g id="Layer_5" data-name="Layer 5"><path class="cls-7" d="M171.44,376.19a1.88,1.88,0,0,0-2.67,0l-9.7,9.7a.33.33,0,0,1-.5,0,17.85,17.85,0,0,0-11.4-4.17c-5.5,0-11.15,2.51-16,7.07L131,389a.39.39,0,0,0-.08.1l-.47.45-8.16,8.16h0l-8.71,8.72h0l-8.72,8.71h0l-5.47,5.47h0L98,422a.76.76,0,0,1-1.24,0l-.94-.95a6.29,6.29,0,0,0-8.9,8.9L99.6,442.61a.46.46,0,0,1-.06.72l-14,14a.55.55,0,0,1-.72-.05l-4.64-4.63a5.3,5.3,0,0,0-7.5,7.5L87.45,475a5.31,5.31,0,0,0,7.5,0,5.32,5.32,0,0,0,0-7.51l-4.64-4.64a.48.48,0,0,1,0-.72L104.43,448a.37.37,0,0,1,.55,0l12.75,12.75a6.29,6.29,0,1,0,8.9-8.89l-1.21-1.21a.62.62,0,0,1,0-.8l1.57-1.57h0l31.06-31.06c4.37-4.37,7.09-9.59,7.66-14.69A17.72,17.72,0,0,0,161.7,389c-.07-.08-.21-.23.05-.49l9.69-9.69A1.88,1.88,0,0,0,171.44,376.19Zm-16,38.35L125,445c-.71.71-1.22.08-1.22.08l-21.17-21.18a.87.87,0,0,1,.1-1.29l3.08-3.08a.46.46,0,0,1,.72,0l9.77,9.77a1.9,1.9,0,0,0,2.67,0,1.9,1.9,0,0,0,0-2.67l-9.91-9.91c-.23-.23,0-.48,0-.48l5.51-5.51a.38.38,0,0,1,.5-.06l5.66,5.66a1.89,1.89,0,1,0,2.67-2.67l-5.73-5.73s-.17-.13,0-.33l5.72-5.72c.16-.16.27,0,.27,0l10,10a1.85,1.85,0,0,0,1.33.55,1.89,1.89,0,0,0,1.34-3.22l-10-10a.25.25,0,0,1,0-.35l5.68-5.68c.22-.22.34,0,.34,0l5.72,5.71a1.89,1.89,0,0,0,2.67-2.67l-5.51-5.51c-.28-.28-.08-.44,0-.53a19.15,19.15,0,0,1,11.79-4.62,14.34,14.34,0,0,1,10.38,4.55C165.8,398.32,161.56,408.41,155.43,414.54Z" transform="translate(-8.04 -9.47)"/></g><g id="Layer_5-2" data-name="Layer 5"><path class="cls-7" d="M350.21,137.28H334.33c-4.36,0-4.09-5.59-4.09-5.59V117.31A5.22,5.22,0,0,0,325,112.1H296.44a5.21,5.21,0,0,0-5.21,5.21v14.38s.7,5.59-4.85,5.59H271.25a5.22,5.22,0,0,0-5.21,5.21v28.59a5.21,5.21,0,0,0,5.21,5.21h17.38c2.86,0,2.6,2.3,2.6,2.3v17.68a5.21,5.21,0,0,0,5.21,5.21H325a5.22,5.22,0,0,0,5.21-5.21V178.85s-.44-2.56,2.77-2.56h17.2a5.21,5.21,0,0,0,5.21-5.21V142.49A5.22,5.22,0,0,0,350.21,137.28Z" transform="translate(-8.04 -9.47)"/></g><g id="Layer_5-3" data-name="Layer 5"><path class="cls-7" d="M349.82,311.07H332.5c-.81,0-.89-.66-1-1a4.73,4.73,0,0,0-4.2-2.58h-4.32a7,7,0,0,0-14.05,0h-4.31a4.73,4.73,0,0,0-4.17,2.52c-.17.32-.4,1-1.14,1H282a4.56,4.56,0,0,0-4.54,4.55v81.55a4.56,4.56,0,0,0,4.54,4.55h67.81a4.57,4.57,0,0,0,4.55-4.55V315.62A4.57,4.57,0,0,0,349.82,311.07Zm-2.22,79.34a4.56,4.56,0,0,1-4.55,4.54H288.78a4.56,4.56,0,0,1-4.54-4.54v-68a4.56,4.56,0,0,1,4.54-4.54h10.59c.74,0,.86.67,1,1a4.7,4.7,0,0,0,4.19,2.56h22.68a4.71,4.71,0,0,0,4.34-2.89.89.89,0,0,1,1-.65h10.48a4.56,4.56,0,0,1,4.55,4.54v68Z" transform="translate(-8.04 -9.47)"/><path class="cls-7" d="M292,334.12h33.57a1.9,1.9,0,0,0,0-3.79H292a1.9,1.9,0,1,0,0,3.79Z" transform="translate(-8.04 -9.47)"/><path class="cls-7" d="M292,359h33.57a1.9,1.9,0,0,0,0-3.8H292a1.9,1.9,0,1,0,0,3.8Z" transform="translate(-8.04 -9.47)"/><path class="cls-7" d="M334.05,342.77H292a1.9,1.9,0,1,0,0,3.79h42.1a1.9,1.9,0,0,0,0-3.79Z" transform="translate(-8.04 -9.47)"/><path class="cls-7" d="M334.05,367.66H292a1.9,1.9,0,1,0,0,3.79h42.1a1.9,1.9,0,0,0,0-3.79Z" transform="translate(-8.04 -9.47)"/><path class="cls-7" d="M334.05,380.1H322.14a1.9,1.9,0,0,0,0,3.79h11.91a1.9,1.9,0,0,0,0-3.79Z" transform="translate(-8.04 -9.47)"/></g><g id="Layer_5-4" data-name="Layer 5"><path class="cls-7" d="M166.72,196.79h-6.53s-2.32-.11-2.32-1.88V188a19.12,19.12,0,1,0-38.23,0v6.82c0,2-2.28,2-2.28,2h-6.57a19.15,19.15,0,1,0,0,38.29h6.82s2,0,2,1.65v7.17a19.12,19.12,0,0,0,38.24,0v-6.79a2.13,2.13,0,0,1,1.94-2h6.91a19.15,19.15,0,1,0,0-38.29Zm0,34.77H110.79a15.62,15.62,0,0,1,0-31.24h55.93a15.62,15.62,0,0,1,0,31.24Z" transform="translate(-8.04 -9.47)"/><path class="cls-7" d="M131.78,204a5.12,5.12,0,1,0,5.12,5.11A5.11,5.11,0,0,0,131.78,204Zm0,6.7a1.59,1.59,0,1,1,1.59-1.59A1.59,1.59,0,0,1,131.78,210.7Z" transform="translate(-8.04 -9.47)"/><path class="cls-7" d="M145.73,204a5.12,5.12,0,1,0,5.11,5.11A5.11,5.11,0,0,0,145.73,204Zm0,6.7a1.59,1.59,0,1,1,1.58-1.59A1.59,1.59,0,0,1,145.73,210.7Z" transform="translate(-8.04 -9.47)"/><path class="cls-7" d="M131.78,217.64a5.12,5.12,0,1,0,5.12,5.12A5.12,5.12,0,0,0,131.78,217.64Zm0,6.71a1.59,1.59,0,1,1,1.59-1.59A1.59,1.59,0,0,1,131.78,224.35Z" transform="translate(-8.04 -9.47)"/><path class="cls-7" d="M145.73,217.64a5.12,5.12,0,1,0,5.11,5.12A5.12,5.12,0,0,0,145.73,217.64Zm0,6.71a1.59,1.59,0,1,1,1.58-1.59A1.59,1.59,0,0,1,145.73,224.35Z" transform="translate(-8.04 -9.47)"/></g><g id="Layer_5-5" data-name="Layer 5"><path class="cls-7" d="M544.14,349.15l-13.83-6.58a1,1,0,0,1-.67-1.06v-7.13c0-.72.86-.76.86-.76,4.73,0,8-3.85,8-8.57a8.57,8.57,0,0,0-8.56-8.57H489.59a8.57,8.57,0,0,0-8.56,8.57c0,4.72,3.19,8.57,7.92,8.57,0,0,.9,0,.9.8v7.09a1,1,0,0,1-.67,1.06l-13.83,6.58c-1.7.81-3,1.46-3,4.71v54.29c0,3,3.71,5,12,6.53a169.25,169.25,0,0,0,50.71,0c8.31-1.51,12-3.52,12-6.53V353.86C547.12,350.42,545.84,350,544.14,349.15Zm-2.8,13.45h-50.6a5.19,5.19,0,0,0-5.19,5.19v22.46a5.19,5.19,0,0,0,5.19,5.19h49.57c2.81,0,2.77,1.91,2.77,1.91V407.9c-.38.36-2.33,1.79-10.16,3.06a169.69,169.69,0,0,1-46.35,0c-7.83-1.27-9.78-2.7-10.16-3.06v-54a1,1,0,0,1,.67-1.07l13.83-6.58c1.7-.8,3-1,3-4.7v-6.84a1,1,0,0,1,1-1.05h29.77s.93-.07.93,1.05v6.84c0,3.82,1.28,3.9,3,4.7l13.83,6.58a1,1,0,0,1,.67,1.07v7.23S543.36,362.6,541.34,362.6Zm-36,20h-4.16a3.59,3.59,0,1,1,0-7.17h4a.83.83,0,0,0,.9-.83v-4.11a3.59,3.59,0,1,1,7.17,0v4.39c0,.59.77.55.77.55h4.17a3.59,3.59,0,1,1,0,7.17h-4s-.91,0-.91.72v4.22a3.59,3.59,0,1,1-7.17,0v-4.17A.71.71,0,0,0,505.38,382.59Z" transform="translate(-8.04 -9.47)"/></g><path class="cls-7" d="M510,115.63c0,9.26,7.65,14.19,13.25,18.6,2,1.56,3.88,3,5.78,3s3.81-1.47,5.78-3c5.6-4.41,13.25-9.34,13.25-18.6s-10.47-15.81-19-6.92C520.44,99.82,510,106.38,510,115.63Z" transform="translate(-8.04 -9.47)"/></svg>