<svg id="Calque_1" data-name="Calque 1" xmlns="http://www.w3.org/2000/svg" width="100" height="80" viewBox="0 0 621.21 1272.38"><defs><style>.cls-1,.cls-3,.cls-4,.cls-5,.cls-6,.cls-7,.cls-8{stroke:#000;stroke-miterlimit:10;}.cls-1,.cls-8{stroke-width:0.1px;}.cls-2{fill:#6c63ff;}.cls-4,.cls-6,.cls-7,.cls-8{fill:none;}.cls-4{stroke-width:0.25px;}.cls-5{fill:#1d1d1b;stroke-width:0.5px;}.cls-6{stroke-width:2px;}</style></defs><path class="cls-1" d="M655.93,320.12c-13.43-.23,167,.82,134.79.82L636.06,320a62.22,62.22,0,0,1-69.87-63.17h0a62.21,62.21,0,0,1,62.2-60.77H971.2c43,0,73,42.54,58.62,83L909.46,617.66l-42,118.26L736.52,1104.16c-.93,2.62-10.42,30.9,7.79,56.71a61.8,61.8,0,0,0,50.83,26.33H963.43a62.21,62.21,0,0,1,62.21,62.21v1.2a62.21,62.21,0,0,1-62.21,62.21h-353c-43.16,0-73.21-42.88-58.47-83.45C625.14,1025.51,702.56,823.09,775.2,619c29.59-83.12,58.39-166.52,85.79-250.4,10.92-33.46-1.91-38.71-12.82-44.63" transform="translate(-480.2 -118.25)"/><path class="cls-2" d="M614.41,256.53C595,288.7,584.17,305.22,579.18,325c-.78,3.1-2.43,10.26-6.1,24.9-3.73,14.9-4.24,16.35-5.13,21.06-3.09,16.34-.31,17-2.71,30.11-1.23,6.76-3.8,22.4-15.32,36.08-5,6-7.62,6.66-10.48,11.24-4.84,7.75-7.17,21.42,4.7,47.32-1.92,5.77-3.52,13.48.34,17.7,1.79,2,3.32,1.59,5.44,3.06,6.18,4.29,3.33,14.47,4.77,30.64.94,10.58,2.06,23.15,10.21,28.25,3.63,2.27,9-.3,10.9,2.73,1,1.56.5,3.39.17,4.93-1.4,6.5-.31,13.28-.51,19.92s.15,7.81.25,15.83c.09,6.59,0,16-.93,27.74L548.56,678.8l31.66-30.29,33.7,30-30.63-32,4.76-68.76a13.83,13.83,0,0,0,8.85-1.87c3.71-2.41,5-6.38,5.79-9,5.33-18.09,6.09-37.72,6.09-37.72.18-4.7.26-10.29,4.12-13.68,2.35-2.06,4.11-1.45,6.2-4a13.3,13.3,0,0,0,2-12.72c-1.3-3.51-4.3-6.59-5.27-6.13-.77.36-.55,3.05-.14,3.11s15.38-33.48,2.43-52.9c-6.08-9.11-15.8-11.32-19.91-24.51a40.79,40.79,0,0,1-1.53-11.49c.18-11.45,15.83-140.53,133.27-201.44,55.79-28.94,109.55-27.5,146.3-26.81a302.9,302.9,0,0,1,81.85,13.13c26.4,8,44.18,13.7,59.75,30.12,12.69,13.39,34.92,45.54,25,66.39-19,40.11-137.28-3.39-241.68,49.23-14.82,7.47-37.41,20.93-52.45,46.77-4.29,7.37-21,36.06-12.66,68.57,8.25,32.19,36.18,49.34,48.26,56.68,40.47,24.62,68.7,13.17,123.32,42.9,10,5.43,21.82,12.77,24.51,25.27,3.23,15-8.21,30.84-18.39,39.07A56.63,56.63,0,0,1,887,628.17c-50.77,8.05-110.53-13.41-164.28-5-10.51,1.64-70.16,12.15-99.21,61.68-24.57,41.88-13.16,87.59-10,98.81,4.2,14.73,12.31,33.26,63.57,85.78,1.24,1.27,2.16,2.18,3.15,3.17,55.74,55.67,85.2,65.83,101.27,101.88,3.47,7.78,5.3,14.48,4.5,22-2.16,20.2-22.25,32.87-28.37,37.21-38.14,27.06-72.57,2.72-155,14.88-30.78,4.54-48.77,7.41-68.07,20.83-40.88,28.43-50.05,78-52.08,89.61-15.69,89.82,53.23,161.2,59.74,167.75,42.15,42.34,112.15,76,179.24,59.74,37.24-9,61.17-30.4,88.85-55.15,57.13-51.06,92.51-119,136.34-137.87,9.4-4,26.17-11.27,45.19-6.89,11.66,2.68,21,9.8,22.72,7.66s-4.82-10-11.59-17.51a80.44,80.44,0,0,0-22.47-8.68c-44.75-9.87-83.31,22.88-90.38,29.1a956.34,956.34,0,0,1-65.87,71.62c-34.61,34-52.43,51.18-77.62,61.66-11.48,4.78-49.36,19.92-95.64,8.83-62-14.84-93.23-65.74-103.15-85.79a163.92,163.92,0,0,1-15.68-56.83c-.71-9.66-1.37-18.59,1.38-28.95,6.95-26.16,30.31-40.76,39.83-47,50.52-33,86.25-4,170.56-23.49,35.64-8.25,72.74-16.84,99.06-50,23.36-29.47,33.05-72,22.47-109.27-7-24.62-21.5-39.65-43.92-62.3-.31-.32-1.37-1.4-2.74-2.74-41.17-40.48-77.11-46-107.15-82.46-3.76-4.57-9.48-12.12-11.64-23.06-2.19-11.12-.94-27.44,9.34-36.4,6.85-6,15.59-6.38,19.26-6.49,37.55-1.11,121.56,13.94,138.89,15.32,11.78.94,102.64,6.9,151.15-53.11,34.32-42.44,41.47-110.5,12.26-156.25-21.74-34-58.24-47.35-68.43-51.07-52.94-19.3-120.31-8.72-142-29.61-1.51-1.47-6.71-6.48-8.17-14.3-1.76-9.46,2.4-20.52,10.21-25.53,5.94-3.81,12.57-3.21,14.3-3.07,14.58,1.2,50.91-2.26,123.58-9.19,27.86-2.65,91.2-8.69,122.55-54.13,18.23-26.42,18.44-55.73,18.38-65.36-.24-42.52-22.86-72.2-31.66-83.74-63.38-83.16-197.46-76.66-219.57-75.58-91.74,4.5-179.24,46.78-209.72,93.81C636.42,218.84,633.29,225.29,614.41,256.53Z" transform="translate(-480.2 -118.25)"/><path class="cls-3" d="M1218.89,456.51" transform="translate(-480.2 -118.25)"/><path class="cls-3" d="M869.16,736.61" transform="translate(-480.2 -118.25)"/><path d="M870.83,449.1c-5.94,26.93-17.54,52.24-21,79.75-.86,6.73,10.27,8.11,11.78,1.6a428.08,428.08,0,0,1,20.2-63.82l-11.58-3.19a405.5,405.5,0,0,0-19.07,95.43h12c2.38-31.86,13.89-62.06,19.39-93.38,1.35-7.68-8.71-10.34-11.57-3.19-13,32.42-19.27,66.84-25.4,101.06l11.78,1.6a795.53,795.53,0,0,1,15.15-93.57c1.47-6.58-7.31-10.55-11-4.63-7.4,12-10.89,26.42-14.89,39.81q-6.35,21.26-11.51,42.83L846.91,551c2-16.31,7.1-32.44,11.7-48.16q7-24.06,15.46-47.66L862.5,452l-16.34,52.79C840.93,521.65,834.31,539,835.92,557c.56,6.3,10.23,8.67,11.79,1.6,8.8-39.93,12.31-81.24,27.2-119.62l-11.57-3.19-22.28,98.76c-1.46,6.5,7.44,10.68,11,4.63a47.17,47.17,0,0,1,8-10.26l-10.25-4.25a33.71,33.71,0,0,1-2.73,9.86l11.18,3c.14-5.22,2-10.07,4.06-14.82l-11-4.63a43.94,43.94,0,0,1-5.2,14.8l11,1.44a9.8,9.8,0,0,1,1-6.84l-11.18-3A41.87,41.87,0,0,1,845.28,537l11.79,1.59c.31-8.4,2.22-19.47-1.93-27.12-1.67-3.08-7-4.26-9.42-1.21-5.36,6.89-10.42,14-15.1,21.32l11.18,3c.66-6.15,3-12.14,4.87-18,2-6.32,4.05-12.64,5.9-19,1.75-6.06,3.34-12.17,4.59-18.35s1.35-13.43,4-19.33l-11-4.63Q839.6,495.59,833,536.76l11-1.44c-1.25-2.42.26-6.54.76-9,.75-3.74,1.66-7.44,2.6-11.14q2.83-11.1,5.92-22.14c4-14.38,9-28.59,10.39-43.53.56-5.91-8.6-8.2-11.18-3A233.31,233.31,0,0,0,828.79,531c-.66,7.72,11.28,7.61,12,0,1.32-13.9,6.37-27,10.24-40.37,4.14-14.24,6.36-28.88,8.48-43.54,1.07-7.45-9.23-10.78-11.57-3.19q-12.9,41.71-24.38,83.85l11.78,1.6c3.1-30.37,14.56-59.1,19.13-89.21l-11.79-1.6c-1.46,17.38-8.8,33.53-12.55,50.43-1.82,8.2-3,16.53-6.07,24.39-3.18,8.18-7.94,15.72-12.52,23.17l11,4.62c3.39-14.58,7.37-29,12-43.26,4.52-13.81,9.59-26.9,11.21-41.45.86-7.66-11.15-7.6-12,0-1.56,14-7.09,26.82-11.38,40.08Q815.77,517,810.93,538c-1.52,6.59,7.35,10.53,11,4.63,4.68-7.62,9.29-15.27,12.73-23.54,3.6-8.68,5-17.76,7.07-26.89,4-18,11.42-35,13-53.62.56-6.66-10.77-8.3-11.78-1.59-4.74,31.2-16.35,60.91-19.56,92.4-.7,6.84,10,8,11.79,1.59q11.48-42.14,24.38-83.85l-11.57-3.19c-2.21,15.27-4.59,30.46-9,45.28-4.1,13.84-8.77,27.36-10.15,41.82h12a217.36,217.36,0,0,1,22.06-78.48l-11.18-3c-1.56,16.21-7.75,32.05-12,47.71-2.16,8-4.38,16-6.11,24-1.43,6.72-3.24,13.7.07,20.11,2.23,4.32,10.15,3.7,11-1.43q6.55-41.15,17.12-81.48c1.66-6.32-8.12-11-11-4.62s-3.41,12.73-4.64,19.42c-1.32,7.13-3.12,14.16-5.14,21.13-3.82,13.23-9.72,26.43-11.19,40.19-.68,6.3,8.26,7.62,11.18,3,4.13-6.49,8.5-12.82,13.23-18.9l-9.43-1.21c1.48,2.73.58,7.24.55,10.26,0,3.6-.13,7.2-.26,10.8-.25,6.86,9.94,8,11.78,1.6a54,54,0,0,0,2.1-15.68c-.08-5.73-8.33-8.45-11.18-3a23,23,0,0,0-2.23,16.09c1.06,5.14,8.51,5.73,11,1.43a53.36,53.36,0,0,0,6.4-17.67c1-6.08-8.08-11.38-11-4.62s-5.51,13.4-5.7,20.88c-.14,5.64,8.69,8.6,11.19,3a53,53,0,0,0,4.36-15.92c.64-5.42-6.83-7.56-10.24-4.24a59.61,59.61,0,0,0-9.89,12.69l11,4.62L874.91,439c1.73-7.67-8.81-10.29-11.57-3.19-14.9,38.38-18.4,79.69-27.21,119.62L847.92,557c-1.57-17.51,5.3-34.49,10.39-50.94l15.76-50.9c2.31-7.45-9-10.38-11.57-3.19q-8.71,24.52-16,49.51c-4.71,16.24-9.58,32.67-11.59,49.5-.81,6.76,10.22,8.08,11.78,1.6q5-20.62,11-41c3.84-13,7.05-27.17,14.22-38.79l-11-4.62A821.44,821.44,0,0,0,845.33,565c-.67,6.67,10.6,8.25,11.79,1.59,6.13-34.22,12.42-68.64,25.4-101.06L871,462.3c-5.69,32.42-17.35,63.58-19.82,96.57-.58,7.71,11.4,7.65,12,0a391.38,391.38,0,0,1,18.65-92.24c2.47-7.49-8.75-10.17-11.58-3.19A429.2,429.2,0,0,0,850,527.26l11.79,1.59c3.34-26.33,14.91-50.76,20.6-76.56,1.66-7.53-9.9-10.74-11.57-3.19Z" transform="translate(-480.2 -118.25)"/><path d="M905.87,463c7.72,0,7.74-12,0-12s-7.73,12,0,12Z" transform="translate(-480.2 -118.25)"/><path d="M877.29,512.82a112.63,112.63,0,0,1-8.37,26.65l11,4.62c4-12.34,9.51-24.18,12.51-36.83,3-12.43,2.94-25.36,6.42-37.7L887,468c-2.9,26.69-15.18,51.23-21.1,77.23l11.78,1.6c1.34-32.59,11.8-63.77,17.28-95.73,1.29-7.53-10.16-10.82-11.57-3.19-2.92,15.68-8.1,30.81-11.24,46.44-3.08,15.39-4.2,31.09-5.27,46.73-.45,6.69,10.47,8.24,11.79,1.59,1.57-7.9,5.07-14.94,8.45-22.19a236.25,236.25,0,0,0,9.34-23.07c5.42-15.67,9.35-31.8,13.28-47.9L898,447.89a198.45,198.45,0,0,1-3.57,54.26c-1.74,8.78-3.89,17.46-6.33,26.06-2.24,7.94-3.94,18.18-8.92,24.89l11,4.63a459.17,459.17,0,0,1,24-93.8l-11.57-3.19c-4.3,14.16-11.93,26.95-16.9,40.85-5.24,14.63-6.64,30.22-8,45.59-.62,7,9.79,7.75,11.79,1.59,6-18.44,13.41-36.36,19.72-54.69s11.19-37.35,16-56.24H913.54c1.54,7.64-.27,16.21-1.35,23.83-1.13,8-2.58,16-4.3,23.85A338.18,338.18,0,0,1,894.14,532l11.79,1.6c.86-15.26,7.06-30.31,11.19-44.92q6.43-22.74,12.11-45.7l-11.57-3.19c-4.78,35.37-11,70.94-22.52,104.79h11.57c-1.23-8.81,1.23-19.44,2.67-28.11,1.55-9.25,3.54-18.4,5.72-27.51,1.8-7.51-9.41-10.62-11.57-3.19C900,498,896.1,510.2,892.91,522.55c-2.18,8.44-5,19.94,4,25.38a6.13,6.13,0,0,0,8.21-2.16c4.76-7.18,7.72-15.26,10.4-23.4s5.53-15.93,8.12-23.95a106.91,106.91,0,0,0,5.19-24.62c.66-8.6,0-17.11,3.17-25.32l-11.79-1.59c1.06,17.33-4.53,34.18-8.09,50.95-3.61,17-6.64,34.11-9.67,51.22l11.58,3.19c3.29-22.93,10.45-45,17.69-66.89l-11.57-3.19c-5,20.47-12.1,40.37-14,61.48-.61,6.66,10.79,8.3,11.78,1.6,4.38-29.59,19.21-56.56,21.25-86.63.46-6.77-10.2-8.12-11.79-1.59-3.24,13.31-6.45,26.62-9,40.08-1.41,7.5,9.44,10.73,11.57,3.19a351.35,351.35,0,0,1,16.06-45.09l-11.18-3c-.63,9.29-4.63,18.41-7.54,27.19l-9.08,27.37c-2.43,7.35,9.15,10.5,11.57,3.19l9.69-29.2c3.11-9.37,6.69-18.62,7.36-28.55.39-5.72-8.79-8.5-11.18-3a374,374,0,0,0-17.27,48L930,500.3c2.53-13.46,5.74-26.77,9-40.08l-11.79-1.6c-2,28.87-16.6,55-20.82,83.44l11.79,1.59c1.82-19.95,8.86-38.93,13.59-58.29,1.84-7.54-9.15-10.51-11.57-3.19-7.24,21.93-14.41,44-17.7,66.89-1.07,7.48,10.21,10.89,11.58,3.19,3.14-17.75,6.28-35.51,10.07-53.14,3.7-17.17,9.2-34.46,8.11-52.22-.42-7-9.38-7.9-11.78-1.6-2.86,7.49-3,15.45-3.34,23.37a94.63,94.63,0,0,1-4.47,24.83c-2.52,8.07-5.5,16-8.13,24-2.54,7.78-5.19,15.32-9.73,22.19l8.21-2.15c-1.45-.87.11-6,.38-7.25,1-4.62,2.34-9.16,3.66-13.69q4-13.86,8.06-27.7l-11.57-3.19c-2.48,10.36-4.72,20.79-6.33,31.33-1.53,10-3.47,20.61-2.06,30.67.89,6.36,9.88,5,11.57,0,11.48-33.85,17.74-69.42,22.52-104.79,1-7.38-9.66-10.93-11.57-3.19q-5.92,23.88-12.64,47.56c-4.31,15.16-10.2,30.38-11.09,46.25-.4,7.18,9.56,7.55,11.79,1.59a339.27,339.27,0,0,0,14.52-50.1c1.74-8.44,3.13-16.94,4.25-25.49,1.08-8.32,2.3-16.6.62-24.92-1.19-5.89-10.16-5.54-11.57,0-4.81,18.89-9.66,37.79-16,56.24s-13.74,36.25-19.73,54.69l11.79,1.6c1.32-15,2.85-29.89,8.18-44.06,5-13.27,12.16-25.58,16.29-39.19,2.28-7.5-8.93-10.32-11.57-3.19a459.17,459.17,0,0,0-24,93.8c-1,6.78,6.78,10.26,11,4.62,5.16-6.95,7-16.81,9.34-25,2.76-9.51,5.2-19.11,7.12-28.83,3.73-18.91,5.53-38.19,4-57.45-.51-6.4-10.09-8.56-11.79-1.6-3.92,16.1-7.85,32.23-13.27,47.9a221,221,0,0,1-9.3,22.67c-3.46,7.3-6.9,14.62-8.49,22.59l11.78,1.6c1-15.21,2.07-30.46,5.23-45.41s8.05-29.52,10.85-44.57l-11.57-3.19c-5.66,33-16.33,65.22-17.71,98.92-.27,6.71,10.28,8.22,11.79,1.59C883.68,521.24,896,495.87,899,468c.75-6.87-10-7.92-11.78-1.6-3.48,12.34-3.49,25.26-6.43,37.7-3,12.65-8.55,24.5-12.5,36.83-2,6.37,8.08,10.86,11,4.63A124.3,124.3,0,0,0,888.86,516c1.41-7.55-10.15-10.78-11.57-3.19Z" transform="translate(-480.2 -118.25)"/><path d="M926.08,507.11q-10.56,29.05-18.25,59l11-1.43c.89,1.9.45.92,1.34-.4a39.45,39.45,0,0,0,1.87-3.87c1.18-2.3,2.49-4.52,3.86-6.71l-11.19-3a71.71,71.71,0,0,1-1.35,9.69c-1.57,7.54,10,10.76,11.57,3.19a94.76,94.76,0,0,0,1.78-12.88c.45-6.22-8.21-7.77-11.18-3-3.94,6.33-10.59,15.55-7.06,23.1,2.23,4.76,9.75,3.29,11-1.44q7.67-30,18.24-59c2.64-7.27-8.95-10.41-11.57-3.19Z" transform="translate(-480.2 -118.25)"/><path d="M815.66,527.36c7.72,0,7.73-12,0-12s-7.73,12,0,12Z" transform="translate(-480.2 -118.25)"/><path d="M831.05,458.47c0,.27,0,.53,0,.8s0,.36,0,0c0,.13,0,.27-.07.4s-.13.52-.21.78-.4,1-.13.4a3.07,3.07,0,0,0,1.07,4.1c1.32.7,3.41.45,4.11-1.07a12.23,12.23,0,0,0,1.22-5.41,3,3,0,0,0-6,0Z" transform="translate(-480.2 -118.25)"/><path d="M830.91,464.23c-1.86,4.42-2.36,9.15-3.89,13.65-1.45,4.25-3.4,8.3-4.82,12.56-3,9-5.65,18-10,26.48-3.54,6.85,6.81,12.93,10.36,6.05,4.57-8.87,7.62-18.14,10.68-27.61,1.48-4.59,3.41-8.95,5.07-13.46,1.74-4.74,2.23-9.8,4.2-14.48,1.26-3-1.37-6.56-4.19-7.38-3.45-1-6.13,1.22-7.38,4.19Z" transform="translate(-480.2 -118.25)"/><path d="M812.11,522c.95-1.51,1.47-3.18,2.35-4.73s1.73-3.38,2.51-5.06-1.77-3.26-2.59-1.51-1.59,3.44-2.51,5.06-1.42,3.23-2.35,4.73,1.57,3.15,2.59,1.51Z" transform="translate(-480.2 -118.25)"/><path d="M831.76,456.48c-2,4.36-2.74,9.25-4,13.86-1.15,4.32-3.13,8.2-3.89,12.6a59.35,59.35,0,0,1-4.62,14.9c-1.87,4-2.17,8.87-4.63,12.44-1.1,1.59,1.5,3.09,2.59,1.51,2.47-3.57,2.5-8,4.32-11.84a72.9,72.9,0,0,0,4.56-12.79c1-4.06,1.91-7.8,3.31-11.76,2-5.64,2.46-11.95,4.92-17.41.78-1.75-1.8-3.27-2.59-1.51Z" transform="translate(-480.2 -118.25)"/><path d="M832.68,458.52a1.5,1.5,0,0,0,0-3,1.5,1.5,0,0,0,0,3Z" transform="translate(-480.2 -118.25)"/><path d="M832.43,459.46a1.5,1.5,0,0,0,0-3,1.5,1.5,0,0,0,0,3Z" transform="translate(-480.2 -118.25)"/><path d="M832.6,459a1.5,1.5,0,0,0,0-3,1.5,1.5,0,0,0,0,3Z" transform="translate(-480.2 -118.25)"/><path d="M832.09,460.56a1.5,1.5,0,0,0,0-3,1.5,1.5,0,0,0,0,3Z" transform="translate(-480.2 -118.25)"/><path d="M947.75,469.79c-8.18,8.37-12.54,20-17.66,30.35l2.59,1.51c3.36-7.5,7-14.88,11-22.07,3.41-6.16,7.8-12.05,10.2-18.71.57-1.6-2-2.66-2.74-1.16-7,13.51-9.09,29.07-16.87,42.11L937,503q5.6-16.71,12-33.11l-2.9-.8c-4,13.92-5.72,28.37-10.09,42.19H939c-1.19-3.42.92-8.18,1.82-11.57q1.44-5.42,3-10.8c2.11-7.17,4.43-14.27,6.9-21.32l-2.89-.8c-4.53,17.93-14.29,34.06-18.24,52.11l2.94.4c.17-9.54,3.87-18.3,7.15-27.1l10.11-27.12-2.89-.8c-2.48,8.16-6.79,15.49-10.13,23.3a113.11,113.11,0,0,0-6.82,22.23l2.94.4c2.08-16.35,8.33-31.63,14.61-46.73l-2.89-.8c-1,7.4-5.17,14.68-7.24,21.88a165.64,165.64,0,0,0-4.93,23.82l2.94.4c.89-8.27,4.39-15.74,7.82-23.22l9.56-20.82L950,463.55c-1.41,7-4.94,13.34-7.46,19.95a192.32,192.32,0,0,0-6.79,21.76l2.89.8c2.77-13.95,9.77-26.43,14.5-39.74l-2.94-.4c-1.07,8.37-5.72,16.64-8.36,24.62s-4.86,16-6.75,24.17l2.89.8c3-16.72,12.62-31.09,17.86-47.09l-3-.4c-.22,4.23-2.48,8.37-4,12.28-1.59,4.18-3.17,8.35-4.68,12.55-3,8.4-5.77,16.88-8,25.53l2.89.8Q943,498.36,948.77,478h-2.89c.84,3.28-2.25,9.46-3.2,12.74l-3.51,12.13L931.87,528a1.5,1.5,0,0,0,2.89.79l8.11-28,3.79-13.06c1-3.28,3-7.16,2.11-10.59a1.51,1.51,0,0,0-2.89,0q-5.79,20.37-9.62,41.2c-.35,1.87,2.41,2.7,2.89.8a284.85,284.85,0,0,1,8.62-27.33c1.53-4.19,3.12-8.36,4.71-12.53,1.41-3.69,3.2-7.31,3.4-11.3.1-1.75-2.43-1.95-2.94-.4-5.24,16-14.84,30.36-17.86,47.09-.34,1.88,2.45,2.71,2.89.8,2-8.76,4.45-17.42,7.34-25.94,2.63-7.73,6.83-15.5,7.88-23.65.22-1.77-2.42-1.88-3-.4-4.73,13.31-11.73,25.79-14.5,39.74-.37,1.88,2.42,2.69,2.89.8a191.14,191.14,0,0,1,6.8-21.77c2.52-6.6,6.05-13,7.45-19.94.32-1.55-2-2.79-2.74-1.15-3.7,8.06-7.45,16.11-11.11,24.2-3.12,6.89-5.86,13.76-6.68,21.35-.18,1.67,2.72,2.08,2.95.4a165.36,165.36,0,0,1,4.93-23.82c2.07-7.19,6.22-14.51,7.24-21.88a1.5,1.5,0,0,0-2.89-.8c-6.4,15.4-12.6,30.87-14.72,47.53-.21,1.67,2.62,2.05,2.95.4a110.63,110.63,0,0,1,7.69-24.15c3.23-7.1,7-13.89,9.26-21.38.57-1.88-2.23-2.58-2.89-.8l-10.81,29c-3.16,8.47-6.4,16.87-6.56,26,0,1.66,2.58,2.07,3,.4,4-18,13.72-34.18,18.24-52.11a1.5,1.5,0,0,0-2.89-.8q-4.34,12.35-7.94,24.91c-1.19,4.2-2.35,8.4-3.39,12.63-.66,2.67-1.35,5.08-.42,7.75a1.52,1.52,0,0,0,2.9,0c4.36-13.82,6.09-28.27,10.09-42.19.54-1.9-2.21-2.55-2.9-.8q-6.43,16.41-12,33.11c-.55,1.64,1.89,2.59,2.74,1.16,7.79-13.07,9.9-28.59,16.87-42.1L951,460.07c-2.49,6.95-7.28,13.19-10.8,19.66-3.63,6.66-7,13.48-10.06,20.41-.77,1.73,1.73,3.27,2.59,1.51,5-10.06,9.24-21.6,17.19-29.74,1.36-1.38-.76-3.5-2.12-2.12Z" transform="translate(-480.2 -118.25)"/><path d="M936.91,513.68c-1,8.64-5.75,16.36-8.27,24.6s-4.27,17-8,25l2.79.75c-.09-3.9,1.6-7.29,2.8-10.92a86.21,86.21,0,0,0,2.38-9.4c1.38-6.64,2.51-13.28,4.91-19.65h-2.89c1.52,6.67-2.09,15.86-3.76,22.39a129.15,129.15,0,0,1-7.14,21.05l2.75,1.15a80.27,80.27,0,0,1,5.62-18.49l-2.8-.76a55.27,55.27,0,0,1-2.72,18.09c-.55,1.71,1.82,2.48,2.74,1.16,4.17-6,4.6-13.06,6.11-20,1.81-8.25,4.5-16.34,6.85-24.45,5.05-17.37,10.46-34.49,17.88-51l-2.35.3c3.12,2.57-2.64,12.49-3.77,14.89l2.79.76a12.28,12.28,0,0,1,1.67-6.62l-2.74-1.16c-.54,3.42-2.78,5.95-4.31,9a34.34,34.34,0,0,0-2.61,7.1l2.89.8a28.79,28.79,0,0,1,5.84-13.56L951,483.59c.09,3.89-2.67,8-4.23,11.47-1.27,2.86-2.49,5.76-3.65,8.67-2.89,7.27-5.37,14.69-7.7,22.16A214.75,214.75,0,0,0,929.68,547c-1.32,6.44-4.45,12.52-4.79,19.11-.1,1.93,2.9,1.93,3,0,.36-7,3.76-14,5.18-20.83,1.57-7.56,4-14.92,6.39-22.26,2.27-7.1,4.73-14.13,7.57-21,2.3-5.56,7.11-12.24,7-18.43,0-1.17-1.71-2.14-2.56-1.06a31.62,31.62,0,0,0-6.61,14.88c-.3,1.86,2.4,2.71,2.89.8,1.48-5.73,6-10.32,6.92-16.06.25-1.57-1.85-2.76-2.74-1.16a15.29,15.29,0,0,0-2.08,8.14c0,1.4,2.14,2.16,2.8.76,2.16-4.58,8.53-14.23,3.3-18.53a1.52,1.52,0,0,0-2.36.3c-7,15.6-12.34,31.7-17.12,48.1-2.38,8.16-4.94,16.29-7.05,24.53-1.95,7.61-2,16.18-6.67,22.8l2.74,1.16a57.39,57.39,0,0,0,2.83-18.89c0-1.37-2.16-2.19-2.79-.76a83.42,83.42,0,0,0-5.93,19.22c-.27,1.53,2,2.82,2.75,1.15a138.67,138.67,0,0,0,7.88-23.53c1.67-6.77,4.91-15.21,3.31-22.21-.36-1.57-2.41-1.28-2.89,0-2.62,6.92-3.7,14.17-5.28,21.37-1.4,6.38-5.08,12.82-4.92,19.39,0,1.39,2.13,2.18,2.8.76,3.85-8.22,5.67-17,8.31-25.67s7.38-16.41,8.38-25.4c.21-1.92-2.79-1.9-3,0Z" transform="translate(-480.2 -118.25)"/><path d="M953.59,476.11l-5.09,12.07,2.89.8a30.56,30.56,0,0,1,6.83-14.86l-2.51-.66a10,10,0,0,1-.19,5.13c-.37,1.6,1.93,2.73,2.74,1.16a11,11,0,0,0,1.15-2.85l-2.95-.4c-.52,5-4.08,9.2-6.27,13.56s-4.21,8.72-6.31,13.08c-.83,1.73,1.76,3.26,2.59,1.52,2.65-5.5,5.09-11.18,8.1-16.5,2.18-3.85,4.42-7.17,4.89-11.66.18-1.72-2.5-2-3-.4l-.84,2.14,2.74,1.15a16.41,16.41,0,0,0,.19-6.73,1.5,1.5,0,0,0-2.5-.66,33.23,33.23,0,0,0-7.6,16.18,1.5,1.5,0,0,0,2.89.8l5.09-12.07c.75-1.78-2.15-2.55-2.89-.8Z" transform="translate(-480.2 -118.25)"/><path d="M928.51,503.8a1.5,1.5,0,0,0,0-3,1.5,1.5,0,0,0,0,3Z" transform="translate(-480.2 -118.25)"/><path d="M945.06,476.41a13,13,0,0,1,.12,3l.22-1.59a7.62,7.62,0,0,1-.29,1.14l.6-1.43a4.9,4.9,0,0,1-.42.78,6,6,0,0,0,2.16,8.21,6.14,6.14,0,0,0,8.21-2.15,11.88,11.88,0,0,0,1.4-8,6.55,6.55,0,0,0-1.76-4.24,6,6,0,0,0-8.48,0,5.75,5.75,0,0,0-1.76,4.24Z" transform="translate(-480.2 -118.25)"/><path d="M814.91,510.47a.6.6,0,0,0,0-1.2.6.6,0,0,0,0,1.2Z" transform="translate(-480.2 -118.25)"/><path d="M811.12,517.06c-.84,1.47-2,3-2.21,4.75-.08.77,1.12.76,1.2,0a5.26,5.26,0,0,1,.86-2.06l1.19-2.08a.6.6,0,0,0-1-.61Z" transform="translate(-480.2 -118.25)"/><path d="M810.81,519.72A80.54,80.54,0,0,0,818.92,502c2.27-6.88,4.68-13.69,6.92-20.64.24-.73-.91-1.05-1.15-.31-2.1,6.49-4.67,12.69-6.48,19.22a72.56,72.56,0,0,1-8.43,18.85c-.42.65.62,1.26,1,.61Z" transform="translate(-480.2 -118.25)"/><path class="cls-2" d="M809.17,513.32c7.72,0,7.73-12,0-12s-7.73,12,0,12Z" transform="translate(-480.2 -118.25)"/><path class="cls-2" d="M809.23,513.32c7.73,0,7.74-12,0-12s-7.73,12,0,12Z" transform="translate(-480.2 -118.25)"/><path class="cls-2" d="M809.19,513.49c7.72,0,7.74-12,0-12s-7.73,12,0,12Z" transform="translate(-480.2 -118.25)"/><path class="cls-2" d="M809.34,513.17c7.72,0,7.73-12,0-12s-7.73,12,0,12Z" transform="translate(-480.2 -118.25)"/><path class="cls-2" d="M803.55,505.58l-.06.15a4.52,4.52,0,0,0-.1,2.39,4.38,4.38,0,0,0,.71,2.23,6.71,6.71,0,0,0,3.59,2.76l1.59.21a6,6,0,0,0,3-.82l1.21-.94a6,6,0,0,0,1.55-2.64l.06-.15a4.56,4.56,0,0,0,.1-2.4,4.38,4.38,0,0,0-.71-2.23,4.53,4.53,0,0,0-1.54-1.68,4.58,4.58,0,0,0-2-1.08l-1.6-.21a6,6,0,0,0-3,.82l-1.21.94a6,6,0,0,0-1.55,2.65Z" transform="translate(-480.2 -118.25)"/><line class="cls-4" x1="350.94" y1="338.26" x2="329.08" y2="402.9"/><path d="M835,491.87c7.72,0,7.73-12,0-12s-7.74,12,0,12Z" transform="translate(-480.2 -118.25)"/><path d="M828.7,483.87l-7.48,12.28,11.18,3c-.41-3.2.65-6.92.91-10.14.54-6.72-10.37-8.19-11.79-1.6a52.56,52.56,0,0,1-3.25,8.73c-1.74,4-3,8.15-4.31,12.29-2.37,7.37,9.21,10.52,11.57,3.19A116.51,116.51,0,0,1,829.71,500c.64-1.45.82-2.94,1.35-4.41.62-1.71,1.64-3.11,2-4.94L821.31,489c-.26,3.25-1.33,6.92-.91,10.14.71,5.6,7.81,8.56,11.18,3l7.48-12.28c4-6.62-6.35-12.65-10.36-6.06Z" transform="translate(-480.2 -118.25)"/><path d="M818.62,518.81c7.72,0,7.73-12,0-12s-7.74,12,0,12Z" transform="translate(-480.2 -118.25)"/><path d="M817.66,521.68c7.72,0,7.73-12,0-12s-7.73,12,0,12Z" transform="translate(-480.2 -118.25)"/><path d="M816.83,524.43c7.72,0,7.73-12,0-12s-7.73,12,0,12Z" transform="translate(-480.2 -118.25)"/><path d="M816.83,524.43c7.72,0,7.73-12,0-12s-7.73,12,0,12Z" transform="translate(-480.2 -118.25)"/><path d="M812.43,518.78a1.5,1.5,0,0,0,0-3,1.5,1.5,0,0,0,0,3Z" transform="translate(-480.2 -118.25)"/><path d="M812.2,519.13a1.5,1.5,0,0,0,0-3,1.5,1.5,0,0,0,0,3Z" transform="translate(-480.2 -118.25)"/><path d="M812.15,519.11a1.5,1.5,0,0,0,0-3,1.5,1.5,0,0,0,0,3Z" transform="translate(-480.2 -118.25)"/><path d="M810.72,517.22l-.26.67a1.51,1.51,0,0,0,1,1.85,1.53,1.53,0,0,0,1.84-1l.55-1.33c.65-1.56-2-2.71-2.74-1.16l-.26.6,2.74.36c0,.31,0,.35.07.14l.14-.37.27-.74-2.89-.8c0,.13,0,.21-.08.24l2.74,1.15.57-2a1.5,1.5,0,0,0-2.89-.79l-.57,2a1.49,1.49,0,0,0,.87,1.77,1.52,1.52,0,0,0,1.87-.61,2.19,2.19,0,0,0,.38-.95,1.5,1.5,0,0,0-2.89-.8,3.89,3.89,0,0,0-.48,2.57c.35,1.1,2.18,1.61,2.74.35l.26-.6L811,516.56l-.55,1.33,2.89.8.26-.68a1.5,1.5,0,1,0-2.89-.79Z" transform="translate(-480.2 -118.25)"/><path d="M815.06,513.81l.06-.28-2.9-.8a.33.33,0,0,1-.1.32l2.75,1.16c.44-1.44.91-2.87,1.27-4.34.45-1.87-2.44-2.67-2.9-.8-.35,1.47-.82,2.9-1.27,4.34a1.5,1.5,0,0,0,2.74,1.15,2.79,2.79,0,0,0,.41-1,1.56,1.56,0,0,0-1-1.85,1.53,1.53,0,0,0-1.85,1.05l-.06.28c-.4,1.89,2.49,2.69,2.9.8Z" transform="translate(-480.2 -118.25)"/><path d="M816.8,507.92a1.84,1.84,0,0,0-.7-.76A1.54,1.54,0,0,0,815,507c-.21.05-.73.29-.17.07l1.7,2.2a10.9,10.9,0,0,0,.59-1.69,1.52,1.52,0,0,0-1-1.85,1.54,1.54,0,0,0-1.85,1.05q-.07.31-.18.63c0,.1-.07.2-.1.3s-.16.41,0,0a1.54,1.54,0,0,0,.11,1.66,1.47,1.47,0,0,0,1.58.54l.24-.1c.26-.11.23-.1-.08,0l-1.15-.15,0,0-.53-.54a1.24,1.24,0,0,1,.1.2,1.52,1.52,0,0,0,2.06.53,1.54,1.54,0,0,0,.54-2.05Z" transform="translate(-480.2 -118.25)"/><path d="M817.17,506.15l-.16-.1.54.54a1.69,1.69,0,0,1-.25-.46v.8c.35-.9.65-1.82,1-2.74a1.5,1.5,0,0,0-1-1.84,1.52,1.52,0,0,0-1.84,1c-.31.86-.67,1.73-.92,2.61a2.62,2.62,0,0,0,1.2,2.73c1.64,1,3.14-1.56,1.51-2.59Z" transform="translate(-480.2 -118.25)"/><path d="M816.37,502.52h-.3l.52.9a18.6,18.6,0,0,0,.81-2.35,15,15,0,0,1,.79-2.4.6.6,0,0,0-1-.6,9.11,9.11,0,0,0-.74,2.11c-.11.41-.28.77-.42,1.16a10.93,10.93,0,0,1-.44,1.48.6.6,0,0,0,.52.9h.3c.77,0,.77-1.17,0-1.2Z" transform="translate(-480.2 -118.25)"/><path d="M819.41,496.37c-.67.17-2,.45-2.12,1.28l1.18.16c0-.27.37-.54.43-.84a.6.6,0,0,0-.88-.67l-.18.09.82.82a6.3,6.3,0,0,0,.45-.9c.27-.69-.73-1-1.1-.47l-.08.11,1.12.3c0-.36.37-.5.21-.93a.71.71,0,0,0-.65-.44l.52.91a7.32,7.32,0,0,0,.49-1.57c.13-.76-1-1.08-1.16-.32a5.69,5.69,0,0,1-.37,1.28.61.61,0,0,0,.52.9h.06l-.52-.29,0,.05-.06-.46a4.32,4.32,0,0,0-.28.86c-.06.66.8.73,1.12.31l.08-.11L818,496a3.6,3.6,0,0,1-.33.61c-.33.54.31,1.08.82.82l.19-.09-.88-.68c0,.19-.27.36-.35.53a1.73,1.73,0,0,0-.13.63c0,.67,1.08.84,1.18.16a2.87,2.87,0,0,0,.53-.22c.25-.09.5-.16.75-.23a.6.6,0,0,0-.32-1.15Z" transform="translate(-480.2 -118.25)"/><path d="M823.7,482.8c-.39.53-.77,1.07-1.13,1.62l1.1.46a10.35,10.35,0,0,1,1.05-2.33l-1.1-.46c-.5,1.5-1.22,2.94-1.76,4.43H823c-.11-.34.36-1.22.47-1.56.2-.61.41-1.22.62-1.83l-1.16-.32c-.35,1.28-1.05,2.39-1.31,3.72l1.18.16a6,6,0,0,1,.6-2l-1.1-.46a10.43,10.43,0,0,1-1.28,2.51c-.47.61.57,1.21,1,.61a12.22,12.22,0,0,0,1.4-2.8c.25-.62-.81-1.08-1.1-.46a7.69,7.69,0,0,0-.76,2.61c-.07.67,1,.82,1.17.16.27-1.33,1-2.44,1.32-3.72a.6.6,0,0,0-1.16-.32l-.78,2.33a2.84,2.84,0,0,0-.31,1.7.61.61,0,0,0,1.16,0c.54-1.49,1.26-2.93,1.76-4.43a.6.6,0,0,0-1.1-.46,12,12,0,0,0-1.17,2.61.6.6,0,0,0,1.1.46c.36-.55.73-1.09,1.12-1.61s-.58-1.23-1-.61Z" transform="translate(-480.2 -118.25)"/><path d="M819.85,493.8c1-3.46,2.32-6.83,3.36-10.28a.6.6,0,0,0-1.16-.32c-1,3.45-2.31,6.83-3.36,10.28a.6.6,0,0,0,1.16.32Z" transform="translate(-480.2 -118.25)"/><path d="M823.28,484.13a6,6,0,0,0,1.89-3.61c.12-.75-1-1.09-1.16-.32a6.78,6.78,0,0,1-1.34,2.95l1.1.46a3.4,3.4,0,0,1,.8-2.06l-1.1-.47-.88,1.05.82.82.69-.93c.35-.47-.23-.95-.68-.88l-.25,0,.68.88c2.25-4.86,4.37-9.57,5.41-14.87.15-.75-1-1.08-1.16-.32-1,5.17-3.08,9.83-5.28,14.59a.6.6,0,0,0,.67.88l.25,0-.68-.88-.68.92c-.4.54.34,1,.82.82a2.2,2.2,0,0,0,1.43-1.76.6.6,0,0,0-1.1-.46,5.35,5.35,0,0,0-.92,2.35.6.6,0,0,0,1.09.46,7.11,7.11,0,0,0,1.47-3.23L824,480.2a4.26,4.26,0,0,1-1.58,3.08.6.6,0,0,0,.85.85Z" transform="translate(-480.2 -118.25)"/><path d="M828.93,465.43c-1.79,2.79-2.44,5.94-3.64,9A51.12,51.12,0,0,0,823,481.2c-.18.75,1,1.08,1.16.32a50.19,50.19,0,0,1,2.56-7.4c1.13-2.74,1.61-5.56,3.23-8.08.42-.65-.62-1.26-1-.61Z" transform="translate(-480.2 -118.25)"/><path d="M823.92,482.33l-.11-.15a.39.39,0,0,0-.15-.16.43.43,0,0,0-.21-.11.37.37,0,0,0-.23,0,.48.48,0,0,0-.23.07l-.12.09a.61.61,0,0,0-.15.27l0,.16a.62.62,0,0,0,.09.3l.11.14a.5.5,0,0,0,.15.17.43.43,0,0,0,.21.11.39.39,0,0,0,.24,0,.44.44,0,0,0,.22-.07l.12-.09a.61.61,0,0,0,.15-.27l0-.16a.53.53,0,0,0-.09-.3Z" transform="translate(-480.2 -118.25)"/><path d="M823.85,482.3a1.11,1.11,0,0,0-.22-.51l.08.31c0-.07.22-.46.26-.61a3.12,3.12,0,0,1,.23-.67c.38-.67-.65-1.28-1-.61-.22.38-.25.81-.43,1.2a1.6,1.6,0,0,0-.24.59c0,.25.16.4.2.62a.6.6,0,0,0,.73.42.61.61,0,0,0,.42-.74Z" transform="translate(-480.2 -118.25)"/><path d="M831.07,456.94a11.52,11.52,0,0,1-.5,1.61l1.16.32.23-.71-1.1-.46c-.22,1.21-1,2.47-1.33,3.67-.42,1.45-1.12,2.81-1.46,4.29-.18.75,1,1.07,1.15.31.35-1.47,1-2.84,1.46-4.28A29.51,29.51,0,0,0,832,458c.11-.61-.8-1.12-1.1-.46a4.4,4.4,0,0,0-.35,1,.6.6,0,0,0,1.16.32,11.52,11.52,0,0,0,.5-1.61c.18-.75-1-1.07-1.16-.32Z" transform="translate(-480.2 -118.25)"/><path d="M831.19,460.22a3.3,3.3,0,0,0,.34-.49.6.6,0,0,0,0-.49.63.63,0,0,0-.13-.2l-.07-.06c-.11-.09-.09-.06.08.09l.08.31c0-.09,0,0,0,0s-.07.12,0-.07a.62.62,0,0,0-.21-.83.61.61,0,0,0-.82.22,1.42,1.42,0,0,0-.2.67.87.87,0,0,0,.11.38s.37.38.17.18l-.18-.43v0l.08-.3a4.25,4.25,0,0,1-.31.43.61.61,0,0,0,.22.82.62.62,0,0,0,.82-.22Z" transform="translate(-480.2 -118.25)"/><path d="M828.53,465.68l-.18.13.72.09-.11-.11a.6.6,0,0,0-1,.26c-.86,3-2,5.88-2.87,8.85l1.18.16v-.33a.6.6,0,0,0-1.17-.16c-.12.39-.31.64-.42,1a.6.6,0,0,0,1.16.32c.08-.31.32-.69.41-1l-1.18-.16v.33a.6.6,0,0,0,1.18.16c.89-3,2-5.87,2.87-8.85l-1,.27.11.11a.62.62,0,0,0,.73.09l.18-.12c.63-.44,0-1.48-.6-1Z" transform="translate(-480.2 -118.25)"/><path d="M831.6,457h0l.06-.05h0l.05-.06h0l0,0,0,0h0s0-.07,0-.09h0v.08h0l0,.07h0l0,.06h0l-.06,0h0l-.07,0h-.16l-.13-.08h0a.21.21,0,0,0,.1.06.16.16,0,0,0,.12,0,.14.14,0,0,0,.11,0,.21.21,0,0,0,.1-.06l0-.06a.42.42,0,0,0,0-.16v-.08a.35.35,0,0,0-.08-.13l0,0a.24.24,0,0,0-.11-.06h-.16a.29.29,0,0,0-.11.06l0,0,0,.06s0,0,0,0l0,0a.28.28,0,0,0,0,.09v-.08h0l0-.07h0l0-.06h0l.06-.05h0a.2.2,0,0,0-.08.08.21.21,0,0,0-.06.1.24.24,0,0,0,0,.12.2.2,0,0,0,0,.11l0,.06a.35.35,0,0,0,.13.08h.08a.24.24,0,0,0,.15,0Z" transform="translate(-480.2 -118.25)"/><path d="M831.51,456.87a.3.3,0,0,0,0-.6.3.3,0,0,0,0,.6Z" transform="translate(-480.2 -118.25)"/><path d="M831.51,456.86a.3.3,0,0,0,0-.6.3.3,0,0,0,0,.6Z" transform="translate(-480.2 -118.25)"/><path d="M831.3,456.35a.34.34,0,0,0-.09.15v.08a.27.27,0,0,0,0,.12.11.11,0,0,0,0,.06.23.23,0,0,0,.09.08.28.28,0,0,0,.15,0,.25.25,0,0,0,.12,0l.09-.06a.47.47,0,0,0,.06-.09.25.25,0,0,0,0-.09.14.14,0,0,0,0-.07.28.28,0,0,0,0-.23.3.3,0,0,0-.17-.14.39.39,0,0,0-.24,0,.38.38,0,0,0-.13.18l0,.08,0-.07s0,0,0,0l0-.06h0l.5.29h0l0,.07h0l0,.06h0a.36.36,0,0,0,.07-.1.23.23,0,0,0,0-.12.29.29,0,0,0-.09-.21.31.31,0,0,0-.21-.09h-.08a.35.35,0,0,0-.13.08Z" transform="translate(-480.2 -118.25)"/><path d="M722.66,917.7,760.8,832l8.93-20c.17-.38,1.41-3.84,1.56-4-.62.58-.85,4.22-1,5.11q-1.11,5.1-2.48,10.12A345.76,345.76,0,0,1,754,862.66c-10.2,25.06-21.92,49.62-29.28,75.73-.23.81-2.21,9.28-2.4,9.28,1.23.05,2.33-7.57,2.68-9.06q2.6-10.87,5.6-21.67,5.74-20.67,12.95-40.9,7.65-21.49,16.9-42.37c1-2.17,2.07-6.16,3.28-7.69-.82,1-1,4.29-1.37,5.61-.48,1.86-1,3.72-1.51,5.57-2.1,7.42-4.52,14.74-7,22.06Q739.16,903.64,724.35,948c-.58,1.74-3.05,6.79-2,7.81-.64-.65,2.93-9.59,3.31-10.78q3.39-10.75,7.13-21.4,7.47-21.24,16.3-42,4.07-9.51,8.4-18.9c1.52-3.3,3.73-6.73,4.81-10.2.84-2.69.78-2-.43,0a61.65,61.65,0,0,0-3,7.3l-17.51,42-9.9,23.72c-3.2,7.68-7.67,15.72-9.9,23.72-.69,2.51-.9,2.55.23.16a65.15,65.15,0,0,0,2.41-7.27q1.83-5.44,3.73-10.87Q732,919.62,736.39,908c12.23-32.23,26-63.86,39.69-95.47.15-.35-.35-.66-.52-.3q-27,55.81-51.39,112.89Q718.46,938.51,712.9,952c-.37.9-2.29,6.51-.51,2,.91-2.31,1.53-4.78,2.31-7.14q2.32-7.14,4.79-14.23,10.13-29.24,22.28-57.7,11.81-27.61,25.49-54.38c1.12-2.2,2.5-4.39,3.44-6.67,1.36-3.28.15-.49-.41,1.13l-5.46,16-10.29,30L734,921l-10.29,30c-.48,1.4-2,6.59-.18,2.12.84-2.06,1.38-4.32,2.06-6.43q2.49-7.8,5-15.59,5.34-16.5,11-32.89,2.85-8.19,5.81-16.34,1.32-3.61,2.68-7.23c.32-.87,2.69-8.86,1.42-3.68-5.36,22-10.55,43.67-18.22,65-.13.36.45.52.58.16a472.28,472.28,0,0,0,18.95-68.71.3.3,0,0,0-.57-.16c-11.29,29.39-20.9,59.37-30.47,89.35-.12.37.46.52.58.16l50.17-146.39a.3.3,0,0,0-.55-.23,886.43,886.43,0,0,0-61.24,147.18c-.12.37.43.5.57.15q23.36-56.89,49.4-112.64,6.36-13.61,12.89-27.13c.4-.84,2.46-5.46.87-2.91-1.29,2.06-2.09,4.81-3.06,7q-3,7-6.08,14.08c-7.59,17.62-15.07,35.3-22.17,53.13-8.39,21-16.23,42.33-23.15,63.91-.12.38.44.51.58.16l43.4-104c.13-.31-.4-.53-.55-.23A703.72,703.72,0,0,0,721.2,957.48a.3.3,0,0,0,.58.16q11.18-33.55,22.34-67.13c7.28-21.88,15.57-43.71,20.6-66.25.07-.32-.4-.56-.54-.23a614.57,614.57,0,0,0-42.25,125.33c-.09.38.49.54.57.16,11.41-49.45,40.44-93,49.69-143.07.06-.31-.4-.56-.55-.23L722.14,917.4c-.16.35.36.65.52.3Z" transform="translate(-480.2 -118.25)"/><path d="M585.45,1282.51a.3.3,0,0,0,0-.6.3.3,0,0,0,0,.6Z" transform="translate(-480.2 -118.25)"/><path d="M556.5,1274.32l10,12.33c.25.3.67-.13.43-.43l-10-12.33c-.25-.3-.67.13-.43.43Z" transform="translate(-480.2 -118.25)"/><line class="cls-5" x1="479.11" y1="359.71" x2="447.09" y2="450.05"/><path d="M939.48,499.79c-3.86,2.28-4.83,6.77-7.18,10.35-2.52,3.83-3.72,7.79-5.33,12.05-2.45,6.44,7.66,10.42,11,4.62,1.48-2.6,3-5.13,4.68-7.63l-11-4.63c-.68,3.56-2.51,7.29-3.52,10.85-1.2,4.26-2.45,8.51-3.85,12.7-2.47,7.34,9.11,10.49,11.57,3.19,1.4-4.19,2.65-8.44,3.85-12.7,1-3.59,2.84-7.23,3.52-10.84,1.27-6.63-7.12-10.48-11-4.63q-2.46,3.75-4.68,7.63l11,4.63c1.15-3,1.92-5.82,3.7-8.55.84-1.29,1.65-2.55,2.37-3.91.47-.9.9-1.82,1.3-2.76.67-1.21.54-1.21-.37,0,6.64-3.93.61-14.3-6.06-10.36Z" transform="translate(-480.2 -118.25)"/><path d="M920.43,558.47l-.71.11a4.47,4.47,0,0,0-2,1.07,4.55,4.55,0,0,0-1.54,1.69,4.46,4.46,0,0,0-.72,2.23,4.53,4.53,0,0,0,.11,2.39l.61,1.43a6,6,0,0,0,2.15,2.15l1.43.61a6,6,0,0,0,3.19,0l.71-.1a4.58,4.58,0,0,0,2-1.08,4.45,4.45,0,0,0,1.54-1.68,4.38,4.38,0,0,0,.71-2.23,4.52,4.52,0,0,0-.1-2.39l-.61-1.44a6,6,0,0,0-2.15-2.15l-1.43-.61a6.16,6.16,0,0,0-3.19,0Z" transform="translate(-480.2 -118.25)"/><path d="M934.05,544.21c-.66.21-.93.81-1.26,1.38l-1.2,2.12a.6.6,0,0,0,1,.6c.29-.53.59-1.06.9-1.58.16-.29.53-1.26.84-1.36.73-.24.42-1.4-.32-1.16Z" transform="translate(-480.2 -118.25)"/><path d="M927.43,567.23a2.48,2.48,0,0,1,.62-1l-1-.61a9.5,9.5,0,0,0-.87,1.92l1.16.32c.57-2.42,1.83-4.65,2.39-7.07l-1.16-.32a7.19,7.19,0,0,1-.69,2.4l1.16.32c.91-2.4,1.44-4.91,2.34-7.3l-1.18-.16-.35,1.45,1.1.47a16.85,16.85,0,0,0,1.05-4.57h-1.2a6.4,6.4,0,0,1-.54,2.73l1.18.16a8.76,8.76,0,0,1,.51-3.05c.18-.64-.8-1.09-1.1-.46A21.18,21.18,0,0,0,929.5,556a.6.6,0,0,0,1.16.32c.45-1.23,1.25-2.41,1.78-3.62l-1.1-.46c-.19.94-.42,1.83-.7,2.75l1.16.32a14.67,14.67,0,0,1,1.44-3.9l-1.1-.47c-.21.94-.8,1.75-1,2.69l1.16.32.68-3.37c.12-.62-.8-1.12-1.1-.46-.4.89-.78,1.78-1.13,2.69-.28.72.88,1,1.16.32s.64-1.62,1-2.4l-1.1-.47-.68,3.37c-.15.75,1,1.08,1.16.32.25-1,.81-1.7,1-2.69a.6.6,0,0,0-1.1-.46,17.32,17.32,0,0,0-1.56,4.19.6.6,0,0,0,1.16.32c.28-.92.51-1.81.7-2.75.13-.62-.81-1.12-1.1-.46-.58,1.34-1.39,2.53-1.9,3.9l1.16.32a13.29,13.29,0,0,1,1.19-3.26l-1.1-.46a12.56,12.56,0,0,0-.55,3.37.6.6,0,0,0,1.18.16,10.36,10.36,0,0,0,.58-3.05c0-.78-1.12-.76-1.2,0a14.83,14.83,0,0,1-1,4.25c-.24.63.82,1.08,1.09.46a4,4,0,0,0,.52-2.06c.06-.72-1-.75-1.17-.16-.9,2.39-1.44,4.91-2.35,7.3-.27.73.89,1,1.16.32a7.19,7.19,0,0,0,.69-2.4c.14-.75-1-1.08-1.16-.32-.56,2.43-1.82,4.65-2.39,7.07a.6.6,0,0,0,1.16.32l.75-1.63c.38-.7-.58-1.2-1-.61a2.49,2.49,0,0,0-.61,1c-.31.7.73,1.31,1,.6Z" transform="translate(-480.2 -118.25)"/><path d="M931.23,553.64a.6.6,0,0,0,0-1.2.6.6,0,0,0,0,1.2Z" transform="translate(-480.2 -118.25)"/><path d="M929.79,557.76a3.41,3.41,0,0,0-.4,1.06.62.62,0,0,0,.42.74.61.61,0,0,0,.74-.42,2.2,2.2,0,0,1,.12-.44,1.55,1.55,0,0,1,.15-.33.6.6,0,0,0-1-.61Z" transform="translate(-480.2 -118.25)"/><path d="M934,544a10.81,10.81,0,0,0-3.1,5.09l1.15.32a66.15,66.15,0,0,1,2.55-7.15l-1.16-.31q-1,3.66-2.2,7.25c-.25.74.89,1,1.16.32.77-2.07,1.68-4.08,2.63-6.08l-1.1-.46c-.79,2.2-1.49,4.41-2.11,6.66L933,550l.73-3.61a.6.6,0,0,0-1.16-.31,49.27,49.27,0,0,1-1.78,4.79c-.31.69.63,1.28,1,.6a45.8,45.8,0,0,0,3.07-6l-1.09-.46-2.12,5.36c-.15.39.23.73.58.76,1.82.13,2.07-3.36,2.33-4.54l-1.18-.16-.18,1.17,1.15.32c.21-1.17.72-2.21,1-3.37l-1.17-.16-.59,2.12,1.1.46c.56-2.29,1.67-4.36,2.16-6.7l-1.18-.16-.06,1.17c0,.79,1.11.75,1.2,0l.5-1.94-1.18-.16,0,.59c0,.78,1.12.75,1.2,0a14.51,14.51,0,0,1,1.35-3.75c.29-.71-.87-1-1.16-.32a15,15,0,0,0-1.39,4.07h1.2l0-.59c0-.72-1-.75-1.18-.16a5.22,5.22,0,0,0-.54,2.26h1.2l.06-1.17a.6.6,0,0,0-1.17-.16c-.5,2.34-1.61,4.41-2.17,6.7-.15.63.79,1.09,1.1.46a7,7,0,0,0,.75-2.72c.05-.67-1-.81-1.18-.16-.29,1.16-.8,2.2-1,3.37a.6.6,0,0,0,1.15.32,2.42,2.42,0,0,0,.23-1.49c0-.65-1-.85-1.18-.16-.08.37-.72,3.69-1.17,3.66l.58.76,2.11-5.36c.25-.62-.83-1.09-1.09-.46a48.43,48.43,0,0,1-3.07,6l1,.6a53.46,53.46,0,0,0,1.91-5.08l-1.16-.31-.73,3.61A.6.6,0,0,0,933,550c.62-2.24,1.32-4.45,2.11-6.65.23-.63-.81-1.08-1.1-.46-1,2.09-2,4.19-2.75,6.36l1.16.32q1.23-3.59,2.2-7.26a.6.6,0,0,0-1.16-.31,67.33,67.33,0,0,0-2.54,7.14.6.6,0,0,0,1.15.32,9.83,9.83,0,0,1,2.79-4.56c.57-.54-.28-1.38-.84-.85Z" transform="translate(-480.2 -118.25)"/><path d="M938.69,535.54c.24-.86.5-1.71.79-2.56l-1.18-.16a3.22,3.22,0,0,1-.28,1.29l1.18.16a10.9,10.9,0,0,1,1.27-4.14l-1.18-.16c0,1.09-.74,1.93-1,2.95a.6.6,0,0,0,1.09.46l.17-.3c.38-.68-.66-1.28-1-.61l-.17.31,1.1.46c.3-1.16,1-2,1-3.27,0-.73-.93-.74-1.18-.16a11.54,11.54,0,0,0-1.31,4.46.6.6,0,0,0,1.18.16,3.92,3.92,0,0,0,.32-1.61.6.6,0,0,0-1.18-.16c-.29.85-.55,1.7-.79,2.56a.6.6,0,0,0,1.16.32Z" transform="translate(-480.2 -118.25)"/><path d="M942.92,514.19a6.06,6.06,0,0,1-.77,3.09c-.31.69.64,1.29,1,.6q1.17-2,2.3-4l-1.09-.47a49.37,49.37,0,0,1-2,5.81c-.28.73.87,1,1.16.32l2.17-5.29-1.16-.32c-.75,2.3-1.75,4.46-2.32,6.81a.6.6,0,0,0,1.16.32,14.81,14.81,0,0,1,1.07-2.89l-1.09-.46c-.48,1.54-.84,3.18-1.46,4.66a33.13,33.13,0,0,0-1.4,3.23l1.16.31a10.93,10.93,0,0,1,1.34-3.65c.37-.68-.66-1.29-1-.61a12.06,12.06,0,0,0-1.46,3.95.6.6,0,0,0,1.16.31c.35-1.14,1-2.12,1.39-3.22.6-1.5,1-3.12,1.46-4.66a.6.6,0,0,0-1.09-.46,15.55,15.55,0,0,0-1.2,3.17l1.16.32c.57-2.35,1.57-4.52,2.32-6.81.24-.75-.88-1-1.16-.32l-2.17,5.29,1.16.32a47.57,47.57,0,0,0,2-5.81.6.6,0,0,0-1.09-.46c-.76,1.36-1.52,2.7-2.3,4l1,.6a9,9,0,0,0,.94-3.69.6.6,0,0,0-1.2,0Z" transform="translate(-480.2 -118.25)"/><path d="M939.9,532.6c.57-2.11,1.28-4.15,2-6.19.2-.54-.64-1-1-.58a14.15,14.15,0,0,0-2.37,4.37l1.18.16a25.15,25.15,0,0,1,1.82-5.52h-1.15a1.86,1.86,0,0,0,.78,1.35.6.6,0,0,0,1-.26,39.17,39.17,0,0,0,1.93-6.81.6.6,0,0,0-1.09-.46,24.11,24.11,0,0,0-1.83,3.88c-.27.73.87,1,1.15.32l1.07-1.87-1.09-.14.22.55a.61.61,0,0,0,1.1.14c1.39-2.31,1.83-5,2.66-7.55.25-.73-.91-1-1.15-.32-.8,2.43-1.22,5.06-2.55,7.27l1.1.14-.23-.55a.6.6,0,0,0-1.09-.14,5.55,5.55,0,0,0-1.19,2.15l1.15.32a22.85,22.85,0,0,1,1.71-3.6L943,518.8a40.1,40.1,0,0,1-1.94,6.81l1-.26-.48-.83c-.15-.63-.95-.51-1.15,0a23.4,23.4,0,0,0-1.87,5.84c-.09.7,1,.77,1.18.16a10,10,0,0,1,2.06-3.85l-1-.58c-.75,2-1.47,4.08-2,6.19a.6.6,0,0,0,1.16.32Z" transform="translate(-480.2 -118.25)"/><path d="M955.62,483.9c-.22.68-.47,1.36-.73,2s.83,1.08,1.1.46l.94-2.2-1.12-.31a13.61,13.61,0,0,1-1.18,3.46,19,19,0,0,1-1.14,3.17l1.1.46.5-1.89a.6.6,0,0,0-1.15-.32,26,26,0,0,1-1.3,2.72l1.1.46a5.22,5.22,0,0,1,.3-1.24l-1.1.14.5.86.09-.72a1.85,1.85,0,0,0-.69,1.17.6.6,0,0,0,1.16.32l.08-.24a.61.61,0,0,0-.74-.74c-.27.06-.54.12-.81.16a.62.62,0,0,0-.58.44l-.06.16c-.27.72.89,1,1.16.32l.06-.16-.58.44a4,4,0,0,0,1.13-.2l-.74-.74-.08.24,1.16.32.38-.64a.62.62,0,0,0,.1-.73l-.5-.87a.61.61,0,0,0-1.1.15,5.22,5.22,0,0,0-.3,1.24c-.1.61.81,1.14,1.1.46a28.23,28.23,0,0,0,1.41-3l-1.15-.32-.51,1.89a.6.6,0,0,0,1.1.46,20.93,20.93,0,0,0,1.26-3.45c.4-1.23,1.17-2.47,1.22-3.78,0-.56-.88-.86-1.12-.3l-.94,2.2,1.1.46c.26-.66.5-1.34.73-2s-.91-1.05-1.16-.32Z" transform="translate(-480.2 -118.25)"/><path d="M952.91,492.23a24.74,24.74,0,0,0-2.07,4.31l1.17.16a11,11,0,0,1,1.26-4c.31-.69-.7-1.31-1-.61a54.07,54.07,0,0,0-2.49,6.36l1.16.32a25.46,25.46,0,0,1,1.64-4.19l-1-.6q-1.57,3.18-3,6.45l1.1.46a46.81,46.81,0,0,1,3-6.87l-1-.6-4.38,9.51,1.1.46a58.84,58.84,0,0,1,3.34-7.1l-1.09-.46c-.73,2.56-2,5.07-2.82,7.59-.25.74.9,1,1.15.32.67-1.87,1.81-3.48,2.62-5.28a34.54,34.54,0,0,1,2.12-4.82l-1.09-.46c-.9,3.79-2.67,7.54-4,11.22l.88-.36-.3-.18a.6.6,0,0,0-.72.94l.09.2.76-.57-.32-.06a.62.62,0,0,0-.74.74c.12.68-.8,2.62-1,3.27s.91,1.05,1.15.32c.4-1.2,1.24-2.64,1-3.91l-.74.74.32,0a.61.61,0,0,0,.76-.58,1,1,0,0,0-.45-1.05l-.72.94.29.18a.6.6,0,0,0,.88-.35c1.32-3.69,3.08-7.43,4-11.23a.6.6,0,0,0-1.09-.46c-1.16,1.8-1.62,3.83-2.57,5.73a45.69,45.69,0,0,0-2.29,4.66l1.15.32c.87-2.55,2.1-5,2.82-7.59.19-.65-.78-1.08-1.09-.47a61.5,61.5,0,0,0-3.47,7.4c-.22.63.81,1.08,1.1.46l4.38-9.52c.31-.68-.67-1.29-1-.6a49.08,49.08,0,0,0-3.08,7.15c-.21.64.83,1.1,1.1.47.93-2.19,1.92-4.33,3-6.46.34-.69-.69-1.3-1-.6a26.78,26.78,0,0,0-1.76,4.47c-.22.75.91,1.05,1.16.32a50.86,50.86,0,0,1,2.37-6.07l-1-.61a16.16,16.16,0,0,0-1.42,4.6c-.09.71,1,.75,1.18.16a21.78,21.78,0,0,1,2-4c.4-.66-.64-1.26-1-.6Z" transform="translate(-480.2 -118.25)"/><path d="M947,508.61a8.21,8.21,0,0,0-.87,2.25,30.42,30.42,0,0,0-1,3.06l1.18.16a11.19,11.19,0,0,1,.79-2.16,6.25,6.25,0,0,1,1-2.28l-1-.58a14.73,14.73,0,0,1-.8,2.09c-.1.31-.51,2.24-.94,1.87s-.12-1.24,0-1.59a8.26,8.26,0,0,1,.6-1.44c.38-.82.83-1.6,1.26-2.39l-1.1-.46c-.79,2.22-1.63,4.43-2.25,6.72L945,514c0-1.83,1.5-3.87,2.18-5.54l-1.17-.16c-.12,1.78-1.09,3.34-1.52,5.05l1.15.32a5,5,0,0,1,1.22-2.68l-1-.42-.25.84c-.45.63.59,1.23,1,.61a2,2,0,0,0,.42-1.45.6.6,0,0,0-1-.43,6,6,0,0,0-1.52,3.21c-.12.74,1,1.08,1.15.32.47-1.83,1.44-3.46,1.57-5.37,0-.74-1-.74-1.18-.16-.74,1.8-2.24,3.85-2.23,5.86a.6.6,0,0,0,1.18.16c.62-2.29,1.45-4.5,2.25-6.72a.6.6,0,0,0-1.09-.47c-.9,1.63-3.74,5.69-1.26,7.17a1.11,1.11,0,0,0,1.8-.47,12.41,12.41,0,0,0,.64-1.8,20.57,20.57,0,0,0,.93-2.52c.09-.53-.58-1.07-1-.58a6.6,6.6,0,0,0-1.19,2.42,15.61,15.61,0,0,0-1,2.87c-.09.67,1,.81,1.18.16a20.66,20.66,0,0,1,.85-2.63,9.45,9.45,0,0,1,.91-2.39c.44-.64-.6-1.24-1-.61Z" transform="translate(-480.2 -118.25)"/><path d="M759.55,812.42c-3.53,14.3-10.25,27.64-16.16,41.06-6.31,14.3-12.66,28.58-18.9,42.91-6.13,14.08-12.06,28.29-15.75,43.24-3.31,13.42-5,27.69-11,40.29-2.78,5.85-1.62,13,4.31,16.42,5.22,3.06,13.62,1.57,16.41-4.31,6.59-13.87,9.3-28.55,12.77-43.39,3.39-14.48,8.77-28.26,14.72-41.86,6.27-14.34,12.62-28.66,18.93-43,6.47-14.69,13.93-29.35,17.79-45,3.7-15-19.43-21.39-23.14-6.38Z" transform="translate(-480.2 -118.25)"/><path d="M747.4,794.27c-6,13-12.18,25.75-16.91,39.32s-9,27.4-13.36,41.13l-27.39,85.34c-2,6.17,2.32,13.1,8.38,14.76a12.2,12.2,0,0,0,14.76-8.38L739.66,883c4.32-13.48,8.5-27,13.07-40.41,4.29-12.54,9.86-24.18,15.39-36.19,2.71-5.88,1.67-12.93-4.3-16.42-5.18-3-13.7-1.61-16.42,4.3Z" transform="translate(-480.2 -118.25)"/><path d="M736,790.65a1126.52,1126.52,0,0,0-51.43,158.41c-3.67,15,19.47,21.4,23.14,6.38A1125.26,1125.26,0,0,1,759.17,797c2.45-6-2.67-13.19-8.38-14.76-6.88-1.89-12.3,2.36-14.77,8.38Z" transform="translate(-480.2 -118.25)"/><path d="M719.36,789.78c-3.5,23-14.73,43.5-22.27,65.25-7.32,21.1-8.83,44.4-19.16,64.4-3,5.76-1.49,13,4.3,16.42,5.38,3.15,13.43,1.48,16.42-4.3,11.15-21.59,13.36-45.73,21-68.49,7.52-22.36,19.25-43.32,22.83-66.9,1-6.4-1.62-12.9-8.38-14.76-5.68-1.56-13.79,1.94-14.76,8.38Z" transform="translate(-480.2 -118.25)"/><path d="M769.8,813.49c-1.45,13.38-5.11,26.48-8.73,39.4-3.79,13.54-7.61,27.07-11.55,40.56-7.87,27-16.34,53.85-26.44,80.12-2.33,6,2.57,13.16,8.38,14.76,6.77,1.86,12.43-2.31,14.76-8.38,10.34-26.87,18.95-54.33,27-82s17.48-55.7,20.6-84.5c.7-6.45-6-12-12-12-7.07,0-11.3,5.53-12,12Z" transform="translate(-480.2 -118.25)"/><path d="M738.35,895.56c-4.94,16.22-13.27,31.3-16.33,48.09-1.16,6.37,1.74,12.94,8.38,14.76,5.83,1.6,13.6-2,14.76-8.38,3.06-16.79,11.4-31.87,16.34-48.09,4.51-14.81-18.65-21.14-23.15-6.38Z" transform="translate(-480.2 -118.25)"/><path d="M795.46,821.51c-14,28.13-27,56.4-36.23,86.49-9.32,30.28-17.64,60.89-26.38,91.34-4.27,14.87,18.89,21.22,23.14,6.38,8.57-29.85,16.77-59.83,25.83-89.53,8.79-28.81,21-55.66,34.37-82.57,2.88-5.8,1.55-13-4.31-16.42-5.31-3.1-13.52-1.52-16.42,4.31Z" transform="translate(-480.2 -118.25)"/><path d="M795.23,845.64c-9.94,22.23-19.94,44.43-29.8,66.68a221.56,221.56,0,0,0-11.57,31.32c-2.75,10-5.09,20.11-10.51,29.08-8,13.26,12.74,25.33,20.72,12.11,5.72-9.46,8.94-20.06,11.81-30.66a204,204,0,0,1,10.27-29.73C796,902.18,806,880,816,857.76c2.64-5.91,1.71-12.9-4.31-16.42-5.12-3-13.76-1.64-16.41,4.3Z" transform="translate(-480.2 -118.25)"/><line class="cls-6" x1="232.17" y1="672.94" x2="232.17" y2="672.94"/><line class="cls-6" x1="202.27" y1="757.37" x2="233.17" y2="672.94"/><path d="M713.11,794.47a14,14,0,0,1-1.68,4.13l11,4.62,1-3.28-11.78-1.6c.32,3.14-2.5,7.42-3.64,10.34l-3.93,10-8.2,21c-5,12.89-10.82,25.74-13.58,39.36-1.53,7.54,10,10.77,11.57,3.19,2.88-14.25,9-27.71,14.3-41.19l8.56-21.88,3.92-10c1.34-3.42,3.38-7,3-10.79-.67-6.51-9.68-8.41-11.79-1.59l-1,3.28c-2,6.56,7.53,10.42,11,4.62a26,26,0,0,0,2.88-7c1.86-7.49-9.71-10.69-11.57-3.19Z" transform="translate(-480.2 -118.25)"/><path d="M720.08,798.18a10,10,0,0,0-8.83,2.25,12.66,12.66,0,0,0-3,4.47l11,4.63c.45-1.17-.64,1.29-.07.18.15-.3.3-.6.47-.9a14.55,14.55,0,0,1,1.12-1.69,6,6,0,0,0-6.78-8.82,7,7,0,0,0-3.58,2.76,21,21,0,0,0-2.73,5.28,6,6,0,0,0,.61,4.62,6.18,6.18,0,0,0,2.87,2.45c2.48,1.05,6.29.29,7.49-2.45.16-.37.32-.75.51-1.11a10.09,10.09,0,0,0,.6-1.05c-.65.8-.78,1-.38.51s.26-.3-.55.36c.52-.3.32-.24-.59.18a3.22,3.22,0,0,1,.63-.15l-1.6.22a4.49,4.49,0,0,1,1,0l-1.6-.22.32.06a6.45,6.45,0,0,0,4.62-.61,6.08,6.08,0,0,0,2.76-3.58c.67-2.94-.89-6.78-4.19-7.38Z" transform="translate(-480.2 -118.25)"/><line class="cls-7" x1="338.88" y1="754.02" x2="301.59" y2="858.51"/><path d="M787.27,900.38c.4,13.36-5.93,25.28-10.94,37.29s-8.38,24.46-5.7,37.49c1.23,6,10.07,5.48,11.57,0,2.45-8.91,4.76-17.87,7.41-26.73,1.17-3.94,2.74-7.75,3.94-11.68s1.67-8.17,2.86-12.19c5.38-18.13,12.94-35.85,19.44-53.6,2.66-7.27-8.94-10.4-11.57-3.19-6.51,17.76-14.07,35.47-19.44,53.6-1.19,4-1.61,8.2-2.86,12.19s-2.77,7.74-3.94,11.68c-2.65,8.86-5,17.82-7.41,26.73H782.2c-2.6-12.63,3.07-25,8-36.37s9.45-22.71,9.08-35.22c-.23-7.71-12.24-7.74-12,0Z" transform="translate(-480.2 -118.25)"/><path d="M800.92,884.23a163.94,163.94,0,0,0-7.57,18.18c-2.15,6.26-3.3,12.85-6.08,18.85-2.55,5.48-2.91,11.45-5.07,17.12-2.28,6-5,12-6.18,18.27-1.42,7.55,10.14,10.78,11.58,3.19,1.14-6,3.68-11.73,5.85-17.45a55.43,55.43,0,0,0,2.8-8.07c.65-3.09.79-5.59,2.12-8.51,2.48-5.42,3.63-11.11,5.42-16.77a137.74,137.74,0,0,1,7.49-18.75c3.35-6.92-7-13-10.36-6.06Z" transform="translate(-480.2 -118.25)"/><path d="M808.23,866.05a9.13,9.13,0,0,0-.29,1.56c0-.23-.22,2.06-.09.79.09-.52.08-.53,0,0l.33-.74c-.16.08-.34.68-.43.83a14.21,14.21,0,0,0-1.78,5.59c-.33,3.13,3,6.14,6,6,3.53-.16,5.65-2.64,6-6,0,.24-.22,1.33,0,.53-.08.28-.54,1.12-.13.43a16.3,16.3,0,0,0,.77-1.5,11.1,11.1,0,0,0,.92-2.51,18.66,18.66,0,0,0,.26-2c.06-.75-.36,1.48,0,.24a6.05,6.05,0,0,0-4.19-7.38,6.13,6.13,0,0,0-7.38,4.19Z" transform="translate(-480.2 -118.25)"/><path d="M806,873.59a30.21,30.21,0,0,0-3.13,10.83c-.3,3.14,3,6.14,6,6,3.51-.15,5.68-2.64,6-6-.13,1.37.06-.14.13-.46.15-.6.34-1.18.52-1.76l.51-1.6c.08-.26.83-1.92.33-1,1.44-2.78.81-6.64-2.15-8.2-2.76-1.46-6.67-.83-8.21,2.15Z" transform="translate(-480.2 -118.25)"/><path d="M804.43,894.26c7.72,0,7.73-12,0-12s-7.74,12,0,12Z" transform="translate(-480.2 -118.25)"/><path d="M807.73,887.7c-2.41,4.52-3.36,10.12-5,15-1.14,3.36,4.17,4.8,5.3,1.47.85-2.5,1.75-5,2.43-7.55a30,30,0,0,1,2-6.11c1.67-3.12-3.08-5.9-4.75-2.78Z" transform="translate(-480.2 -118.25)"/><path d="M801.93,904.18c-1.68,2.75-2.25,6.51-3.33,9.57q-2.18,6.18-4.37,12.36c-1.19,3.34,4.13,4.78,5.31,1.46q2-5.51,3.89-11c1-2.92,1.65-7,3.25-9.6,1.84-3-2.91-5.8-4.75-2.78Z" transform="translate(-480.2 -118.25)"/><path d="M793.57,927.59c-.45,1.88-1.5,3.55-1.85,5.46a2.83,2.83,0,0,0,1.92,3.38,2.77,2.77,0,0,0,3.38-1.92c.35-1.91,1.41-3.58,1.86-5.46a2.75,2.75,0,0,0-5.31-1.46Z" transform="translate(-480.2 -118.25)"/><path d="M789,939c-.84,3-2.36,5.86-3.16,8.9-.93,3.5,4,4.67,5.3,1.46l.18-.29-4.59-2.67c-1.17,2.91-2.18,5.87-3.18,8.87-1.11,3.37,4.19,4.81,5.31,1.46,1-3,2-6,3.17-8.87,1-2.53-2.89-4.74-4.6-2.68a9.17,9.17,0,0,0-1.59,2.72l5.3,1.46c.8-3,2.33-5.86,3.17-8.9.93-3.42-4.37-4.88-5.31-1.46Z" transform="translate(-480.2 -118.25)"/><path d="M792.64,944.81v0l.1.73a.33.33,0,0,1,0-.14l-.1.73a.79.79,0,0,1,0-.13l-.27.66a.09.09,0,0,1,0-.06,2,2,0,0,0,.32-1,2.5,2.5,0,0,0-.54-2,2,2,0,0,0-.77-.7l-.66-.28a2.78,2.78,0,0,0-1.46,0l-.66.28a2.71,2.71,0,0,0-1,1l0,.05c-.08.17-.22.51-.29.68a.43.43,0,0,0,0,.11c0,.19-.09.56-.11.75v.11l.06.39c0,.13,0,.25.05.38a2.08,2.08,0,0,0,.49.94,2.19,2.19,0,0,0,.77.71,3.14,3.14,0,0,0,2.12.27l.66-.27a2.93,2.93,0,0,0,1-1l.27-.66a2.78,2.78,0,0,0,0-1.46Z" transform="translate(-480.2 -118.25)"/><path d="M781.32,961.12c-.71,2.65-1.62,5.22-2.53,7.81-1.18,3.34,4.13,4.78,5.3,1.46.92-2.58,1.82-5.16,2.54-7.81.91-3.42-4.39-4.88-5.31-1.46Z" transform="translate(-480.2 -118.25)"/><path d="M549.09,1255.83c-.24,13.09,7.78,23.57,15.42,33.44a47.57,47.57,0,0,0,13.26,11.53c5,3,10.29,6.38,15.87,8.3,7.33,2.5,10.47-9.08,3.19-11.58-4.29-1.47-8.37-4.36-12.26-6.65A36.65,36.65,0,0,1,574,1282c-5.91-7.55-13.06-16.17-12.88-26.21.14-7.72-11.86-7.72-12,0Z" transform="translate(-480.2 -118.25)"/><path d="M548.79,1256.63l.05.29.6,1.44A4.55,4.55,0,0,0,551,1260a5.71,5.71,0,0,0,3.63,1.29,7.1,7.1,0,0,0,3-.82,6.06,6.06,0,0,0,2.76-3.59,6.56,6.56,0,0,0,.13-2.7c-.07-.48-.14-.85-.24-1.29l.22,1.59a7.28,7.28,0,0,0-.94-3.53,6.69,6.69,0,0,0-2.15-2.15l-1.44-.6a4.52,4.52,0,0,0-2.39-.11,3,3,0,0,0-1.51.41,3,3,0,0,0-1.33.77,6.14,6.14,0,0,0-2.15,3.12,6.38,6.38,0,0,0,1.57,6.41l-.93-1.21,0,.1-.61-1.44,0,.12-.21-1.6c0,.44,0,.89,0,1.33a6.35,6.35,0,0,0,3.16,5.54,6,6,0,0,0,6.05,0,6,6,0,0,0,3-5.18q0-.66-.09-1.32a6.62,6.62,0,0,0-1.75-4.24,6.14,6.14,0,0,0-4.25-1.76,6.05,6.05,0,0,0-4.24,1.76,5.84,5.84,0,0,0-1.76,4.24q.07.66.09,1.32l9-5.18-.08-.06,2.15,2.15,0-.08.6,1.43,0-.11.21,1.6c0-.41,0-.84,0-1.26a6.57,6.57,0,0,0-1.93-4.71l1.75,4.24a1,1,0,0,1,0-.34l-.21,1.6,0-.16-11,1.43.06.11-.6-1.44,0,.13-.22-1.6a15.46,15.46,0,0,0,.37,2.36l-.22-1.6,0,.16.21-1.59,0,.15h11.57l0-.29a4.47,4.47,0,0,0-1.07-2,4.53,4.53,0,0,0-1.68-1.54,6.19,6.19,0,0,0-4.63-.61,6,6,0,0,0-3.58,2.76l-.61,1.43a6.16,6.16,0,0,0,0,3.19Z" transform="translate(-480.2 -118.25)"/><line class="cls-7" x1="68.09" y1="1136.01" x2="68.09" y2="1136.01"/><path class="cls-8" d="M548.26,1254c.09,1.64.25,3.33.5,5a66.16,66.16,0,0,0,13.52,31" transform="translate(-480.2 -118.25)"/><path d="M549.17,1257.45l.18-.21h11.57a4,4,0,0,1-.33-1.07,6,6,0,0,0-6.58-4.3c-2.72.41-5.48,2.88-5.2,5.9a45.65,45.65,0,0,0,1.37,7.12,17.32,17.32,0,0,0,1,2.61,24.24,24.24,0,0,1,.41,2.41l11-4.63c-.24-.67-.31-.76-.21-.28-.12-.48-.25-1-.37-1.44-.22-.84-.42-1.68-.6-2.53-.33-1.64-.57-3.3-.83-5-.5-3.2-4.51-5-7.38-4.19-3.41.94-4.69,4.17-4.19,7.38a45.6,45.6,0,0,0,3.22,12.08c1.21,2.69,5,3.55,7.5,2.46,2.92-1.29,4-4,3.47-7.08s-2-5.78-2.31-9L549,1259.36a4,4,0,0,0,.33,1.07c1,2.5,3,4.4,5.78,4.4,2.42,0,5.41-1.84,5.79-4.4a12,12,0,0,0,.25-3c-.32-3.22-2.53-6-6-6-3,0-6.32,2.76-6,6Z" transform="translate(-480.2 -118.25)"/><path d="M554.68,1263.67c7.72,0,7.74-12,0-12s-7.73,12,0,12Z" transform="translate(-480.2 -118.25)"/><path d="M594.1,1297.4a63.46,63.46,0,0,1-16.92-9.67,19.94,19.94,0,0,1-5-5.74c-1.38-2.37-3.65-4.49-4.75-6.9-3.22-7-13.57-.92-10.37,6.06,1.34,2.91,3.81,5.52,5.51,8.3a30.27,30.27,0,0,0,7.5,7.85A80,80,0,0,0,590.91,1309c7.2,2.79,10.32-8.81,3.19-11.57Z" transform="translate(-480.2 -118.25)"/><path d="M553.42,1274.65c4.56,6.68,11.93,10.16,17.48,15.88,2.76,2.85,5.66,4.22,9,6.27s5.61,5.23,9.29,7l4.62-11c-6.9-2.28-13.14-3.92-19.35-7.94-6.5-4.21-12.52,6.17-6.05,10.36,7.06,4.57,14.34,6.56,22.21,9.15,6.37,2.09,10.82-8,4.63-11-3.14-1.48-4.7-4.3-7.6-6.08s-5.83-2.8-8.24-5.28c-4.66-4.8-11.86-8-15.6-13.46-4.33-6.35-14.73-.35-10.37,6.06Z" transform="translate(-480.2 -118.25)"/><path d="M555.27,1277.21a13,13,0,0,1,1.21,3l1.15-.32a14.3,14.3,0,0,0-1.85-3,16.1,16.1,0,0,1-.66-1.47,7,7,0,0,0-1.14-1.57c-.51-.58-1.35.27-.85.85a16.63,16.63,0,0,1,1.61,2.8,12.7,12.7,0,0,1,1.74,2.74.6.6,0,0,0,1.15-.32,13.69,13.69,0,0,0-1.32-3.25.6.6,0,0,0-1,.61Z" transform="translate(-480.2 -118.25)"/><path d="M548.48,1255.62l0,.16,1.09-.15-.11-.17a.6.6,0,0,0-1.1.46c.21.79.22,1.53.5,2.32l1-.59-.07-.1a.6.6,0,0,0-1.16.32,4.87,4.87,0,0,1,.17,1l1.12-.31,0-.2-1.18.16.38,2c.15.76,1.3.44,1.16-.32l-.38-2a.6.6,0,0,0-1.18.16,1.91,1.91,0,0,0,.21.81.61.61,0,0,0,1.12-.3,6.49,6.49,0,0,0-.21-1.32l-1.16.32a1.5,1.5,0,0,0,.38.63c.4.42,1.21,0,1-.58-.27-.78-.29-1.54-.49-2.32l-1.1.46.12.18a.61.61,0,0,0,1.09-.14,1,1,0,0,0,.07-.48c0-.77-1.25-.77-1.2,0Z" transform="translate(-480.2 -118.25)"/><path d="M549.48,1256.86h0l.14.06-.07,0,.12.09,0,0,.09.12a.35.35,0,0,1-.05-.08l.06.14s0,0,0,0a.63.63,0,0,0-.28-.36.62.62,0,0,0-.46-.06.6.6,0,0,0-.36.28.61.61,0,0,0-.06.46.92.92,0,0,0,.62.65.39.39,0,0,0,.24,0,.44.44,0,0,0,.22-.07.59.59,0,0,0,.28-.36.62.62,0,0,0-.06-.46l-.09-.12a.63.63,0,0,0-.27-.16Z" transform="translate(-480.2 -118.25)"/><path d="M549,1260.61a2.4,2.4,0,0,1,.21.69l1.16-.32-.09-.31c-.17-.64-1.25-.54-1.18.15,0,.4.22.79.26,1.16l.76-.57-.07,0a.6.6,0,0,0-.73.74,16.36,16.36,0,0,0,.69,2.58l.52-.9h-.11l.52.29,0-.09c-.28-.61-1.36-.17-1.1.46.43,1,.51,2.12,1,3.13l.83-.82-.17-.2c-.35-.69-1.39-.08-1,.6a1.33,1.33,0,0,0,.6.64c.53.34,1.09-.32.82-.82a28.58,28.58,0,0,1-.92-2.85l-1.1.46,0,.1a.61.61,0,0,0,.51.3h.11a.61.61,0,0,0,.52-.91,14.77,14.77,0,0,1-.58-2.29l-.73.74h.06a.61.61,0,0,0,.76-.58c0-.4-.21-.74-.26-1.16l-1.17.16.08.32a.6.6,0,0,0,1.16-.32,2.56,2.56,0,0,0-.21-.68c-.27-.72-1.43-.41-1.16.31Z" transform="translate(-480.2 -118.25)"/><path d="M550.51,1261.8a1.1,1.1,0,0,0-.12-.51.79.79,0,0,0-.18-.22,1.51,1.51,0,0,0-.29-.13l.15.06h0l.12.09,0,0,.09.13,0,0,.06.14v0a.6.6,0,0,0-.74-.42.62.62,0,0,0-.42.74.72.72,0,0,0,.55.53l-.14-.06h0l-.12-.09h0l-.09-.12v0l-.06-.14a.5.5,0,0,1,0,.13l0-.16v.08a.62.62,0,0,0,.18.43.59.59,0,0,0,.42.17.6.6,0,0,0,.6-.6Z" transform="translate(-480.2 -118.25)"/><path d="M551.45,1263.9a2.62,2.62,0,0,0-.48-.4.92.92,0,0,0-.4-.11h-.07l.06,0,.22.21c.06.12,0,0,0-.06a1.06,1.06,0,0,1,0-.19.6.6,0,0,0-.74-.42.62.62,0,0,0-.41.74.92.92,0,0,0,.58.84l.29,0h.09l-.17,0h0l0,0a1.8,1.8,0,0,0,.2.19.6.6,0,0,0,.85,0,.62.62,0,0,0,0-.85Z" transform="translate(-480.2 -118.25)"/><path d="M551.55,1266.45v-.16c0-.4-.5-.81-.9-.51l0,0a.63.63,0,0,0-.27.68v0l1.16-.32a11.4,11.4,0,0,1-.4-1.38.6.6,0,0,0-.74-.42.62.62,0,0,0-.42.74,13.55,13.55,0,0,0,.4,1.38.6.6,0,0,0,1.16-.32v0l-.27.68,0,0-.9-.52v.16a.63.63,0,0,0,.6.6.6.6,0,0,0,.6-.6Z" transform="translate(-480.2 -118.25)"/><path d="M552.74,1271.59a.6.6,0,0,0,0-1.2.6.6,0,0,0,0,1.2Z" transform="translate(-480.2 -118.25)"/><path d="M549.58,1255.26h0l.14.06,0,0,.12.1,0,0,.09.12a1.62,1.62,0,0,0-.31-.33l-.21-.13.12.1,0,0,.09.12h0l.06.14v0a.6.6,0,0,0-1.16.32c.06.29.32.41.54.56l-.12-.09a.12.12,0,0,1,.05.05l-.09-.12a1.66,1.66,0,0,0,.16.21.92.92,0,0,0,.33.19.6.6,0,1,0,.32-1.16Z" transform="translate(-480.2 -118.25)"/><path d="M551.91,1267.59a1.11,1.11,0,0,0-.12-.44.6.6,0,0,0-1,0,.26.26,0,0,0-.07.15c0,.2,0,.21,0,0l.27-.36h0l.73.09h0l.15.27v.26h-1.16a2.09,2.09,0,0,1,.08.23.6.6,0,0,0,1.16-.32l-.07-.22a.6.6,0,0,0-1.15,0,1.15,1.15,0,0,0,.37,1.06l-.15-.27v0l.06-.46h0l.22-.21c.27-.07.3-.09.06,0l-.17.08a.61.61,0,0,0,0,1l-.2-.25a.59.59,0,0,0,.74.41.61.61,0,0,0,.42-.73.68.68,0,0,0-.35-.47v1l0,0-.3.08a.71.71,0,0,0,.5-.19.64.64,0,0,0,.16-.63.75.75,0,0,0-.18-.28l0,0s0,0,0,0l0,0h0c0-.1,0,0,0,.16h-1.15l.06.22,1.16-.32c0-.07,0-.15-.08-.22a.6.6,0,0,0-1.16,0,.69.69,0,0,0,.17.64.6.6,0,0,0,.73.09.61.61,0,0,0,.31-.56l-.08.3h-1a.29.29,0,0,1,0-.16.67.67,0,0,0,.18.42.6.6,0,0,0,.42.18c.29,0,.64-.27.6-.6Z" transform="translate(-480.2 -118.25)"/><path d="M553.53,1271.59a1.87,1.87,0,0,0-.26-.3,1.81,1.81,0,0,1-.21-.18s0,0,0,0a1.5,1.5,0,0,0,0-.24,1,1,0,0,0-.17-.37.6.6,0,0,0-.82-.22v0a.61.61,0,0,0-.22.82v0a.61.61,0,0,0,.68.28.66.66,0,0,0,.48-.62c0-.24-.18-.4-.23-.62-.16-.75-1.32-.43-1.16.32a2.77,2.77,0,0,0,.27.61l-.06-.47v0l.42-.42h0l.68.28v0l-.22.82h0l-.82-.21c.1.15.08.37.21.57s.33.3.46.48a.62.62,0,0,0,.82.22.62.62,0,0,0,.22-.83Z" transform="translate(-480.2 -118.25)"/><path d="M552.68,1270.06a1.28,1.28,0,0,1-.11-.2c0,.1,0-.08,0-.09s-.13-.3-.19-.46a.62.62,0,0,0-.74-.42.61.61,0,0,0-.42.74,7.42,7.42,0,0,0,.45,1,.6.6,0,0,0,.82.21.61.61,0,0,0,.22-.82Z" transform="translate(-480.2 -118.25)"/><path d="M552.34,1269.29l-.14-.48c0-.07-.05-.14-.07-.21l0-.1c0-.08,0-.1,0,0a.62.62,0,0,0-.6-.6.6.6,0,0,0-.6.6,5.82,5.82,0,0,0,.3,1.16.6.6,0,1,0,1.15-.32Z" transform="translate(-480.2 -118.25)"/><path d="M554.67,1271.56a.6.6,0,0,0,0-1.2.6.6,0,0,0,0,1.2Z" transform="translate(-480.2 -118.25)"/><path d="M552.16,1271.55v.18l1-.43-.18-.21c-.44-.51-1.3.16-.94.73l.09.16c.28.71,1.44.4,1.16-.32a.87.87,0,0,0-.42-.52c-.49-.26-1.2.3-.82.82a1.75,1.75,0,0,1,.18.29l.52-.9h0a.61.61,0,0,0-.43,1c-.1-.18-.12-.18,0,0l.13.34c.07.19.14.38.22.58a7.87,7.87,0,0,0,.53,1.14.6.6,0,0,0,1-.6,7.59,7.59,0,0,1-.57-1.27,2.86,2.86,0,0,0-.45-1l-.42,1h0a.6.6,0,0,0,.52-.9,1.12,1.12,0,0,0-.19-.29l-.82.82.11,0-.28-.36,0,.11,1.16-.32a2.23,2.23,0,0,0-.21-.44l-1,.72.18.21a.6.6,0,0,0,1-.42v-.18a.6.6,0,0,0-1.2,0Z" transform="translate(-480.2 -118.25)"/><path d="M554.89,1277.61a16,16,0,0,1,1.15,2.8l1.1-.46a3.39,3.39,0,0,0-.29-.53.6.6,0,0,0-1,.61l.14.27,1-.61c-.58-.93-1-1.9-1.49-2.86a.59.59,0,0,0-.82-.21l-.06,0,.82.22c-.36-.79-.78-1.57-1.07-2.39s-1.41-.41-1.16.32a29,29,0,0,0,1.2,2.67.6.6,0,0,0,.82.22l0,0-.82-.21c.51,1,.91,1.93,1.49,2.86a.6.6,0,0,0,1-.61l-.15-.27-1,.61a3.74,3.74,0,0,1,.28.52c.33.66,1.2.16,1.1-.46a14.32,14.32,0,0,0-1.16-2.79c-.28-.71-1.44-.4-1.15.31Z" transform="translate(-480.2 -118.25)"/><path d="M556.12,1280.57l.16.18.85-.85-.19-.16c-.48-.4-1.35.13-.94.73a3,3,0,0,1,.29.39l1-.59-.15-.18c-.52-.59-1.31.26-.85.85l.31.4.85-.85-.13-.11a.6.6,0,0,0-.85.85l.18.23.85-.85-.07-.07c-.47-.46-1.36.17-.94.73l.15.2.82-.82-.1-.07c-.48-.36-1.15.34-.82.82.14.19.26.39.38.59l.94-.73-.12-.14c-.42-.53-1.32.16-.94.72s.58,1,1,1.43l.58-1-.15,0a.61.61,0,0,0-.59,1l.16.16v-.84l0,0a.61.61,0,0,0,0,.85c0,.07.37.38.41.46l.41-.73h0a.6.6,0,0,0-.36.88c.37.54.71,1.1,1,1.66a.6.6,0,0,0,1-.6c-.33-.57-.68-1.12-1-1.67l-.36.88h0a.6.6,0,0,0,.42-.74,4.24,4.24,0,0,0-.72-1v.85l.06-.06a.61.61,0,0,0,0-.84l-.16-.17-.58,1,.15,0c.62.19.94-.57.59-1s-.5-.8-.76-1.19l-1,.72.12.15c.44.54,1.3-.15,1-.72a6.17,6.17,0,0,0-.39-.6l-.82.83.1.07c.47.35,1.17-.35.82-.82l-.15-.21-.94.73.07.07c.56.56,1.31-.26.85-.85l-.18-.23-.85.85.13.11a.6.6,0,0,0,.85-.85l-.31-.4-.85.85.15.18a.61.61,0,0,0,1-.58,2.66,2.66,0,0,0-.42-.68l-.94.73.19.16a.6.6,0,0,0,.85-.85l-.16-.18c-.52-.57-1.37.28-.85.85Z" transform="translate(-480.2 -118.25)"/><path d="M558.91,1283.1l-.24-.07a.49.49,0,0,0-.24,0,.44.44,0,0,0-.22.07.62.62,0,0,0-.28.36.61.61,0,0,0,.06.46l.1.12a.54.54,0,0,0,.26.16l.24.06a.39.39,0,0,0,.24,0,.36.36,0,0,0,.22-.07.57.57,0,0,0,.28-.36.62.62,0,0,0-.06-.46.58.58,0,0,0-.36-.27Z" transform="translate(-480.2 -118.25)"/><path d="M558.08,1283.56a.6.6,0,0,0,0-1.2.6.6,0,0,0,0,1.2Z" transform="translate(-480.2 -118.25)"/><path d="M558.08,1283.56a.6.6,0,0,0,0-1.2.6.6,0,0,0,0,1.2Z" transform="translate(-480.2 -118.25)"/><path d="M558.56,1282.36a1.37,1.37,0,0,1-.25-.23l.09.12,0-.06a.66.66,0,0,0-.36-.28.64.64,0,0,0-.47.06.65.65,0,0,0-.27.36l0,.16a.52.52,0,0,0,.08.3.8.8,0,0,0,.13.19l.07.08.18.15a.6.6,0,0,0,1-.43.55.55,0,0,0-.17-.42Z" transform="translate(-480.2 -118.25)"/><path d="M559.32,1285.81a2.44,2.44,0,0,0,.1.24l.06.09-.06-.14a1,1,0,0,0,.09.22,2,2,0,0,0,.13.18l-.09-.13v0l-.06-.14a.56.56,0,0,0,.09.21.65.65,0,0,0,.35.28.64.64,0,0,0,.47-.06.61.61,0,0,0,.27-.36.53.53,0,0,0-.06-.46v0l.06.15a.83.83,0,0,0-.2-.37l.09.12a.05.05,0,0,1,0,0l.06.14c0-.07-.06-.15-.1-.23l-.06-.09.07.14,0-.07a.63.63,0,0,0-.28-.36.67.67,0,0,0-.46-.06.61.61,0,0,0-.42.74Z" transform="translate(-480.2 -118.25)"/><path d="M559.71,1286.35a2.49,2.49,0,0,0,.37.68l.14.18c.13.17,0,0,0,0a.41.41,0,0,0,0,.09l.1.12a.2.2,0,0,1-.06-.09.6.6,0,0,0,1.16-.32,1.5,1.5,0,0,0-.22-.39c0,.07,0,0,0,0a1.33,1.33,0,0,0-.14-.19,1.94,1.94,0,0,1-.27-.43.6.6,0,1,0-1.16.32Z" transform="translate(-480.2 -118.25)"/><path class="cls-8" d="M594.91,1310.9a62.26,62.26,0,0,1-34-22.61" transform="translate(-480.2 -118.25)"/><path d="M560.73,1287.38l.17.32,8.21-8.21-.51-.37c-5.08-3.7-11,3.34-8.21,8.21l.42.74c3.12,5.47,10.73,2.63,11.18-3l0-.43-11.18,3a15.31,15.31,0,0,0,6,5.41c3.05,1.64,5.51,1.53,8.84,2,4.46.7,10.48,5.2,13.29,8.78l-1.76-4.24c.18,4.88-.35,7.38,4.43,10.12,6.71,3.85,12.76-6.51,6.06-10.36l-.52-.11,1.75,4.25c-.4-3.47.94-5.58-1.83-8.59a36.82,36.82,0,0,0-7.42-6.29c-2.73-1.69-6.22-4-9.33-4.94-2.49-.76-7.47.39-9.11-2.14-3.34-5.18-10.71-2.87-11.18,3l0,.43,11.18-3-.42-.74-8.21,8.21.51.37c5.19,3.78,10.77-3.35,8.21-8.2l-.17-.33c-3.59-6.84-14-.78-10.36,6.06Z" transform="translate(-480.2 -118.25)"/><path d="M562.13,1289.52l.14.44,1.15-.31a1.19,1.19,0,0,0-.48-.75l-.59,1a8,8,0,0,0,.73.81l.31-1.12.19.07-.85.84A17.73,17.73,0,0,1,564,1292c.39.46.87.8,1.26,1.24l.42-1h-.16l.6.6h0l-.6.6c-.36,0,.51.75.6.84l1,1.08c.54.56,1.39-.29.85-.85l-1.55-1.59c-.27-.27-.52-.69-.95-.68a.61.61,0,0,0-.6.6h0a.61.61,0,0,0,.6.6h.16a.62.62,0,0,0,.43-1c-.4-.44-.87-.78-1.26-1.24a17.58,17.58,0,0,0-1.22-1.49.6.6,0,0,0-.85.84.69.69,0,0,0,.66.29.61.61,0,0,0,.3-1.12c-.46-.34-.49-.71-1-.93s-1,.64-.58,1l.18.21c.24.73,1.38.43,1.15-.31l-.13-.44c-.22-.74-1.38-.43-1.16.31Z" transform="translate(-480.2 -118.25)"/><path d="M566.57,1292.69a1,1,0,0,0-.33-.15,2.17,2.17,0,0,0-.36,0l.16,0,.06,0,0,0a.59.59,0,0,0-.85,0,.62.62,0,0,0,0,.84.82.82,0,0,0,.41.24,1.17,1.17,0,0,0,.37,0l-.16,0c.1,0-.08-.06,0,0l.07,0a.59.59,0,0,0,.47.06.58.58,0,0,0,.35-.28.61.61,0,0,0-.21-.82Z" transform="translate(-480.2 -118.25)"/><path d="M567.65,1295.54c.35.31.7.59,1.07.87l.61-1-1-.64c-.5-.31-1.16.32-.82.82a9.35,9.35,0,0,0,2.73,2.22c1.19.77,1.93,1.89,3.22,2.55.68.35,1.29-.68.6-1a17.47,17.47,0,0,1-2.8-2.3c-.83-.66-2.11-1.13-2.72-2l-.82.82,1,.65c.67.42,1.22-.59.61-1a7.69,7.69,0,0,1-.83-.68c-.58-.51-1.43.34-.85.85Z" transform="translate(-480.2 -118.25)"/><path d="M573.72,1300.45c.76.6,1.6,1,2.39,1.54.43.3.76.7,1.17,1a11,11,0,0,0,1.48.86c.68.36,1.29-.67.61-1A8.23,8.23,0,0,1,578,1302a12.9,12.9,0,0,0-1-.92c-.77-.52-1.61-.91-2.35-1.49s-1.46.37-.85.85Z" transform="translate(-480.2 -118.25)"/><path d="M591.28,1309.19a1,1,0,0,0,.27.47,1,1,0,0,0,.2.15c.18.1.2.16,0-.08l-.08-.31v.07l.17-.43,0,0,.58-.15-.06,0,.27.16a1.34,1.34,0,0,0-.5-.29c-.16,0-.32,0-.48-.08s-.32-.15-.49-.19a1.2,1.2,0,0,1-.53-.15.61.61,0,0,0-.82.22.61.61,0,0,0,.22.82c.3.23.66.2,1,.33a3.75,3.75,0,0,0,.47.17,2.89,2.89,0,0,1,.29,0s0,0,0,0,0,0,.11.08a.67.67,0,0,0,1-.38.69.69,0,0,0-.09-.58.88.88,0,0,0-.21-.22l-.16-.07c-.11-.06-.11,0,0,.09a.6.6,0,0,0-1.16.32Z" transform="translate(-480.2 -118.25)"/><path d="M590.19,1308l-.25.07a.6.6,0,0,0-.42.74l0,.16,1.1-.47a.81.81,0,0,0-.56-.41c-.06,0-.49,0-.21,0s-.41-.15-.39-.14c-.81-.25-1.6-.58-2.39-.89s-1,.88-.32,1.16,1.26.51,1.9.73a5.82,5.82,0,0,0,1,.3c.09,0,.58.11.24,0l-.36-.28.07.11a.6.6,0,0,0,1.1-.46l-.05-.16-.42.73.26-.06a.6.6,0,0,0-.32-1.16Z" transform="translate(-480.2 -118.25)"/><path d="M587,1307a2.15,2.15,0,0,0-.63-.3.6.6,0,0,0-.68.88.69.69,0,0,0,.61.35.6.6,0,0,0,.3-1.12c-.3-.17-.62-.31-.94-.46-.56-.26-1.29.48-.72,1l.15.12c.59.49,1.44-.34.85-.84a7,7,0,0,0-1.47-.75c-.72-.35-1.49-.63-2.21-1s-1.3.69-.61,1,1.38.65,2.08,1a7.25,7.25,0,0,1,1.36.59l.85-.84-.16-.13-.72.94c.31.15.64.29.94.46l.3-1.12h-.06l.52.3,0-.06-.67.88.35.18c.64.44,1.24-.6.6-1Z" transform="translate(-480.2 -118.25)"/><path d="M586.16,1306.39a5.65,5.65,0,0,1-.58,0l.16,1.18c-.37.06-.54-.22-.38,0a.6.6,0,1,0,.85-.85,1.05,1.05,0,0,0-.3-.22.82.82,0,0,0-.49,0,.59.59,0,0,0-.43.66.59.59,0,0,0,.59.52,5.65,5.65,0,0,0,.58,0,.61.61,0,0,0,.42-.17.6.6,0,0,0,.18-.43.62.62,0,0,0-.6-.6Z" transform="translate(-480.2 -118.25)"/><path d="M585.81,1307.73a.6.6,0,0,0,0-1.2.6.6,0,0,0,0,1.2Z" transform="translate(-480.2 -118.25)"/><path d="M586.12,1306.58a40.79,40.79,0,0,1-6.64-3.87c-.56-.39-1.24.49-.73.94.73.65,2,.85,2.37,1.76l1-.61a.79.79,0,0,0-.73-.43c-.77,0-.77,1.15,0,1.2h.13l-.51-.3.07.13c.4.67,1.36.08,1-.61-.57-1.23-1.63-1.17-2.56-2l-.73.94a40.79,40.79,0,0,0,6.64,3.87c.7.31,1.31-.72.61-1Z" transform="translate(-480.2 -118.25)"/><path d="M581.87,1304.57l-.07-.06a.61.61,0,0,0-1,.42v.06l.91-.51-2.52-1.39c-.68-.36-1.28.67-.6,1,.84.46,1.66.93,2.51,1.38a.6.6,0,0,0,.9-.52v-.06l-1,.42.07.06c.6.49,1.45-.36.85-.84Z" transform="translate(-480.2 -118.25)"/><path d="M578.51,1303.83a.6.6,0,0,0,0-1.2.6.6,0,0,0,0,1.2Z" transform="translate(-480.2 -118.25)"/><path d="M578.77,1302.76c.28.09-.12-.07-.17-.1s-.32-.15-.48-.25c-.35-.21-.66-.46-1-.68-.76-.46-1.44-1.07-2.21-1.5a.6.6,0,0,0-.6,1c.82.47,1.58,1.1,2.38,1.62a7.62,7.62,0,0,0,1.76,1c.74.22,1-.94.32-1.16Z" transform="translate(-480.2 -118.25)"/><path d="M576,1302.26a.6.6,0,0,0,0-1.2.6.6,0,0,0,0,1.2Z" transform="translate(-480.2 -118.25)"/><path d="M576.36,1301.19a8.61,8.61,0,0,0-1.08-.58.6.6,0,1,0-.32,1.16l.38.21.42.25a.61.61,0,0,0,.82-.21.62.62,0,0,0-.22-.83Z" transform="translate(-480.2 -118.25)"/><path d="M564.54,1292.24v0l0-.16a2.74,2.74,0,0,0,.07.5.63.63,0,0,0,.28.36.6.6,0,0,0,.88-.68.4.4,0,0,1,0-.15l0,.16c0-.13,0-.25,0-.37a.59.59,0,0,0-.73-.42.6.6,0,0,0-.36.28l-.06.14a.58.58,0,0,0,0,.32Z" transform="translate(-480.2 -118.25)"/><path d="M567.24,1295.06v0a.59.59,0,0,0,0,.23.62.62,0,0,0,.32.32.59.59,0,0,0,.23,0l.16,0a.63.63,0,0,0,.27-.16l.09-.12a.61.61,0,0,0,.08-.3v0a.46.46,0,0,0-.05-.23.47.47,0,0,0-.12-.19.53.53,0,0,0-.2-.13.59.59,0,0,0-.23,0l-.16,0a.54.54,0,0,0-.26.16l-.1.12a.61.61,0,0,0-.08.3Z" transform="translate(-480.2 -118.25)"/><path d="M569.05,1296.82a1,1,0,0,0,.45.58l.6-1,0,0-.73.94-.09-.1.82-.83-.17-.13c-.58-.51-1.41.31-.85.85a12.36,12.36,0,0,0,1.54,1.25c.57.38,1.22-.48.73-.94l-.12-.12c-.47-.45-1.38.16-1,.72a2.82,2.82,0,0,0,1.29,1l.16-1.17h-.07a.6.6,0,0,0-.46,1.1,2.59,2.59,0,0,0,.81.37l-.27-1,.34-.11c-.72-.28-1,.88-.32,1.16a.8.8,0,0,0,.83-.2.6.6,0,0,0-.26-1,1.74,1.74,0,0,1-.53-.26l-.46,1.1a1.26,1.26,0,0,0,.39,0,.6.6,0,0,0,.16-1.18,1.33,1.33,0,0,1-.57-.42l-.94.72.12.12.73-.94a9.54,9.54,0,0,1-1.3-1.06l-.85.85a4.23,4.23,0,0,0,.42.32c.48.33,1.16-.33.82-.82a.87.87,0,0,0-.34-.32.6.6,0,0,0-.73.94,1.09,1.09,0,0,0,.27.21.6.6,0,0,0,.6-1l-.12-.08.28.36,0-.14c-.25-.73-1.41-.41-1.16.32Z" transform="translate(-480.2 -118.25)"/><path d="M572.26,1299.47a1.61,1.61,0,0,0,.48.3c.14,0-.12,0-.11-.08l.07.08a1.27,1.27,0,0,0,.28.24.62.62,0,0,0,.83-.21.64.64,0,0,0-.22-.83c.1.07,0,0,0,0l-.07-.09a.9.9,0,0,0-.36-.22h0l-.08-.06-.23-.17a.61.61,0,0,0-.82.22.62.62,0,0,0,.22.82Z" transform="translate(-480.2 -118.25)"/><path d="M574.85,1300.19l-.07-.08c-.33-.44-1.14-.36-1.12.3a.67.67,0,0,0,.18.47c.06.07.52.4.15.1l.72-.94c-.26-.19-.6-.44-.93-.2h.61c-.3-.2-.49-.46-.95-.37l.59.16c-.08-.09-.11-.18-.22-.23s.1.09-.07,0a.85.85,0,0,0-.31-.21c-.43-.14.16.15.16.15s-.27-.27-.35-.34-.41-.29-.61-.47c-.55-.54-1.4.31-.84.85.24.23.51.43.76.63,0,0,.22.17.1,0s.08.11.11.13a.67.67,0,0,0,.2.12s.36.07.15,0l-.36-.27a1.24,1.24,0,0,0,.18.22.63.63,0,0,0,.2.13c-.11-.12-.13-.13,0,0a.66.66,0,0,0,.77.26l-.46-.06c-.18-.13.09.11.11.13l.28.2a.63.63,0,0,0,.61,0v0l-.46.07c-.06,0,.18.15.17.15.55.39,1.26-.52.73-.94l-.17-.13c-.2-.09-.19-.08,0,0l.18.42v0l-1.11.3.06.09a.61.61,0,0,0,.82.21.6.6,0,0,0,.22-.82Z" transform="translate(-480.2 -118.25)"/><path d="M571.05,1298.66l.09.06.15-1.09h0l.16,0h0l.16,0-.08,0a.81.81,0,0,0-.38,0,.56.56,0,0,0-.2.11.41.41,0,0,0-.15.17.36.36,0,0,0-.07.22.39.39,0,0,0,0,.24.55.55,0,0,0,.27.36l.14.06a.58.58,0,0,0,.32,0h0l-.16,0h0l-.16,0,.08,0a.81.81,0,0,0,.19,0l.19,0,.14-.06.12-.09.1-.12a.57.57,0,0,0,.07-.22.43.43,0,0,0,0-.16.33.33,0,0,0,0-.15.32.32,0,0,0-.08-.14.5.5,0,0,0-.17-.15l-.09-.06a.45.45,0,0,0-.22-.08.49.49,0,0,0-.24,0,.41.41,0,0,0-.21.1.5.5,0,0,0-.15.17.62.62,0,0,0-.06.46l.06.15a.53.53,0,0,0,.21.21Z" transform="translate(-480.2 -118.25)"/><path d="M571.69,1298a.69.69,0,0,0-.34-.58,1.37,1.37,0,0,0-.32-.16.62.62,0,0,0-.75.43.69.69,0,0,0,.08.56.63.63,0,0,0,.21.22.59.59,0,0,0,.39.07.53.53,0,0,0,.28-.12.63.63,0,0,0,.22-.31.87.87,0,0,0,0-.36.83.83,0,0,0-.18-.3.93.93,0,0,0-.4-.22l.14.06h0a.62.62,0,0,0-.46-.06.66.66,0,0,0-.36.27.59.59,0,0,0-.06.47.58.58,0,0,0,.27.36l.24.09-.14-.06,0,0-.12-.1,0,0-.09-.12,0,0-.06-.14v-.28l1.09-.14,0,0,.06.14v0l0,.16v0l0,.16v0l-.06.14h0l-.51.3h0l-.3-.08a1.18,1.18,0,0,1,.19.11l-.12-.1,0,0-.1-.12v0l-.08-.31v0a.64.64,0,0,0,.18.43.59.59,0,0,0,.42.17.6.6,0,0,0,.6-.6Z" transform="translate(-480.2 -118.25)"/></svg>